<svg width="24" height="24" viewBox="0 0 24 24" fill="none" xmlns="http://www.w3.org/2000/svg">
<g clip-path="url(#clip0_12804_17500)">
<path d="M23.5861 19.8648H0.413812C0.185297 19.8648 0 19.6795 0 19.451V4.55444C0 4.32592 0.185297 4.14062 0.413812 4.14062H23.5862C23.8147 4.14062 24 4.32592 24 4.55444V19.451C24 19.6795 23.8147 19.8648 23.5861 19.8648Z" fill="#41479B"/>
<path d="M12.1681 5.93893L12.334 6.43641L12.8584 6.44049C12.9263 6.44101 12.9545 6.52763 12.8998 6.56799L12.478 6.87952L12.6361 7.37949C12.6566 7.44418 12.5829 7.4978 12.5277 7.45829L12.1011 7.15332L11.6744 7.45829C11.6192 7.49775 11.5455 7.44422 11.566 7.37949L11.7241 6.87952L11.3023 6.56799C11.2476 6.52763 11.2758 6.44101 11.3437 6.44049L11.8681 6.43641L12.034 5.93893C12.0554 5.87452 12.1466 5.87452 12.1681 5.93893Z" fill="#FFE15A"/>
<path d="M12.1681 16.6186L12.334 17.1161L12.8584 17.1202C12.9263 17.1207 12.9545 17.2073 12.8998 17.2477L12.478 17.5592L12.6361 18.0592C12.6566 18.1239 12.5829 18.1775 12.5277 18.138L12.1011 17.833L11.6744 18.138C11.6192 18.1774 11.5455 18.1239 11.566 18.0592L11.7241 17.5592L11.3023 17.2477C11.2476 17.2073 11.2758 17.1207 11.3437 17.1202L11.8681 17.1161L12.034 16.6186C12.0554 16.5542 12.1466 16.5542 12.1681 16.6186Z" fill="#FFE15A"/>
<path d="M17.5087 11.2827L17.6746 11.7802L18.199 11.7842C18.2669 11.7848 18.295 11.8714 18.2404 11.9117L17.8185 12.2233L17.9767 12.7232C17.9972 12.7879 17.9235 12.8416 17.8682 12.802L17.4416 12.4971L17.015 12.802C16.9598 12.8415 16.8861 12.788 16.9066 12.7232L17.0647 12.2233L16.6428 11.9117C16.5882 11.8714 16.6163 11.7848 16.6843 11.7842L17.2087 11.7802L17.3746 11.2827C17.396 11.2183 17.4872 11.2183 17.5087 11.2827Z" fill="#FFE15A"/>
<path d="M6.82751 11.2827L6.99344 11.7802L7.51783 11.7842C7.58576 11.7848 7.61388 11.8714 7.55927 11.9117L7.1374 12.2233L7.29555 12.7232C7.31604 12.7879 7.24235 12.8416 7.18708 12.802L6.76048 12.4971L6.33387 12.802C6.27865 12.8415 6.20491 12.788 6.2254 12.7232L6.38355 12.2233L5.96168 11.9117C5.90707 11.8714 5.9352 11.7848 6.00312 11.7842L6.52751 11.7802L6.69344 11.2827C6.71491 11.2183 6.80609 11.2183 6.82751 11.2827Z" fill="#FFE15A"/>
<path d="M7.62926 8.49362L7.7952 8.9911L8.31959 8.99518C8.38751 8.99569 8.41564 9.08232 8.36103 9.12268L7.93915 9.43421L8.09731 9.93418C8.11779 9.99886 8.04411 10.0525 7.98884 10.013L7.56223 9.70801L7.13562 10.013C7.08041 10.0524 7.00667 9.99891 7.02716 9.93418L7.18531 9.43421L6.76344 9.12268C6.70883 9.08232 6.73695 8.99569 6.80487 8.99518L7.32926 8.9911L7.4952 8.49362C7.51667 8.42921 7.60775 8.42921 7.62926 8.49362Z" fill="#FFE15A"/>
<path d="M16.8793 13.8296L17.0452 14.327L17.5696 14.3311C17.6375 14.3316 17.6656 14.4183 17.611 14.4586L17.1892 14.7701L17.3473 15.2701C17.3678 15.3348 17.2941 15.3884 17.2388 15.3489L16.8122 15.0439L16.3856 15.3489C16.3304 15.3884 16.2567 15.3349 16.2772 15.2701L16.4353 14.7701L16.0134 14.4586C15.9588 14.4183 15.987 14.3316 16.0549 14.3311L16.5793 14.327L16.7452 13.8296C16.7667 13.7651 16.8578 13.7651 16.8793 13.8296Z" fill="#FFE15A"/>
<path d="M14.9247 6.53268L15.0906 7.03016L15.615 7.03424C15.6829 7.03476 15.711 7.12138 15.6564 7.16174L15.2346 7.47327L15.3927 7.97324C15.4132 8.03793 15.3395 8.09155 15.2843 8.05203L14.8576 7.74707L14.431 8.05203C14.3758 8.0915 14.3021 8.03797 14.3226 7.97324L14.4807 7.47327L14.0588 7.16174C14.0042 7.12138 14.0324 7.03476 14.1003 7.03424L14.6247 7.03016L14.7906 6.53268C14.812 6.46827 14.9031 6.46827 14.9247 6.53268Z" fill="#FFE15A"/>
<path d="M9.58385 15.7827L9.74979 16.2802L10.2742 16.2842C10.3421 16.2848 10.3702 16.3714 10.3156 16.4117L9.89374 16.7233L10.0519 17.2232C10.0724 17.2879 9.9987 17.3416 9.94343 17.302L9.51682 16.9971L9.09021 17.302C9.035 17.3415 8.96126 17.288 8.98174 17.2232L9.1399 16.7233L8.71803 16.4117C8.66342 16.3714 8.69154 16.2848 8.75946 16.2842L9.28385 16.2802L9.44979 15.7827C9.47126 15.7183 9.56234 15.7183 9.58385 15.7827Z" fill="#FFE15A"/>
<path d="M16.7452 8.49362L16.5793 8.9911L16.0549 8.99518C15.987 8.99569 15.9588 9.08232 16.0134 9.12268L16.4353 9.43421L16.2772 9.93418C16.2567 9.99886 16.3304 10.0525 16.3856 10.013L16.8122 9.70801L17.2388 10.013C17.2941 10.0524 17.3678 9.99891 17.3473 9.93418L17.1892 9.43421L17.611 9.12268C17.6656 9.08232 17.6375 8.99569 17.5696 8.99518L17.0452 8.9911L16.8793 8.49362C16.8578 8.42921 16.7667 8.42921 16.7452 8.49362Z" fill="#FFE15A"/>
<path d="M7.4952 13.8296L7.32926 14.327L6.80487 14.3311C6.73695 14.3316 6.70883 14.4183 6.76344 14.4586L7.18531 14.7701L7.02716 15.2701C7.00667 15.3348 7.08036 15.3884 7.13562 15.3489L7.56223 15.0439L7.98884 15.3489C8.04406 15.3884 8.11779 15.3349 8.09731 15.2701L7.93915 14.7701L8.36103 14.4586C8.41564 14.4183 8.38751 14.3316 8.31959 14.3311L7.7952 14.327L7.62926 13.8296C7.60775 13.7651 7.51667 13.7651 7.4952 13.8296Z" fill="#FFE15A"/>
<path d="M9.44979 6.53268L9.28385 7.03016L8.75946 7.03424C8.69154 7.03476 8.66342 7.12138 8.71803 7.16174L9.1399 7.47327L8.98174 7.97324C8.96126 8.03793 9.03495 8.09155 9.09021 8.05203L9.51682 7.74707L9.94343 8.05203C9.99865 8.0915 10.0724 8.03797 10.0519 7.97324L9.89374 7.47327L10.3156 7.16174C10.3702 7.12138 10.3421 7.03476 10.2742 7.03424L9.74979 7.03016L9.58385 6.53268C9.56234 6.46827 9.47126 6.46827 9.44979 6.53268Z" fill="#FFE15A"/>
<path d="M14.7904 15.7827L14.6244 16.2802L14.1 16.2842C14.0321 16.2848 14.004 16.3714 14.0586 16.4117L14.4805 16.7233L14.3223 17.2232C14.3018 17.2879 14.3755 17.3416 14.4308 17.302L14.8574 16.9971L15.284 17.302C15.3392 17.3415 15.413 17.288 15.3925 17.2232L15.2343 16.7233L15.6562 16.4117C15.7108 16.3714 15.6827 16.2848 15.6148 16.2842L15.0904 16.2802L14.9244 15.7827C14.9029 15.7183 14.8118 15.7183 14.7904 15.7827Z" fill="#FFE15A"/>
</g>
<defs>
<clipPath id="clip0_12804_17500">
<rect width="24" height="24" fill="white"/>
</clipPath>
</defs>
</svg>
