<svg width="18" height="16" viewBox="0 0 18 16" fill="none" xmlns="http://www.w3.org/2000/svg">
<path d="M16.8268 8C16.8268 12.2988 13.1661 15.8 8.62986 15.8C4.09357 15.8 0.43291 12.2988 0.43291 8C0.43291 3.7012 4.09357 0.2 8.62986 0.2C13.1661 0.2 16.8268 3.7012 16.8268 8Z" stroke="#A82B11" stroke-width="0.4"/>
<g clip-path="url(#clip0_4153_18825)">
<path d="M12.7563 10.3695L10.1216 7.85941C10.0596 7.80033 9.95907 7.80033 9.8971 7.85941L9.8389 7.91486L9.73197 7.30362L12.1575 4.99279C12.2195 4.9337 12.2195 4.83792 12.1575 4.77888L11.5587 4.20837C11.5289 4.18 11.4885 4.16406 11.4464 4.16406C11.4043 4.16406 11.3639 4.18 11.3342 4.20837L8.73465 6.68498H8.2778C8.11998 6.68498 7.98636 6.79058 7.95613 6.93723L5.69066 4.77884C5.6364 4.72715 5.55266 4.7207 5.49104 4.75945C5.48224 4.765 5.4739 4.77145 5.46612 4.77884L4.86731 5.34933C4.83753 5.37768 4.8208 5.41618 4.8208 5.45628C4.8208 5.49639 4.83753 5.53489 4.86731 5.56324L7.50195 8.07334C7.53295 8.10287 7.57359 8.11764 7.61421 8.11764C7.65483 8.11764 7.69548 8.10289 7.72647 8.07334L7.76304 8.0385L7.61335 8.8942L5.4661 10.94C5.40409 10.999 5.40409 11.0948 5.4661 11.1539L6.06488 11.7244C6.09464 11.7527 6.13504 11.7687 6.17714 11.7687C6.21924 11.7687 6.25964 11.7527 6.2894 11.7244L7.28402 10.7768L6.8143 13.4619H6.44073C6.35305 13.4619 6.28196 13.5296 6.28196 13.6131C6.28196 13.6967 6.35305 13.7644 6.44073 13.7644H11.1828C11.2705 13.7644 11.3416 13.6967 11.3416 13.6131C11.3416 13.5296 11.2705 13.4619 11.1828 13.4619H10.8093L10.1 9.40762L11.9329 11.1539C11.96 11.1797 11.9945 11.1942 12.03 11.1975C12.035 11.1979 12.0401 11.1982 12.0452 11.1982C12.0858 11.1982 12.1264 11.1834 12.1574 11.1539L12.7562 10.5834C12.786 10.555 12.8027 10.5166 12.8027 10.4764C12.8028 10.4363 12.786 10.3979 12.7563 10.3695ZM11.4464 4.52925L11.8207 4.88581L9.41056 7.18198L9.03633 6.82544L11.4464 4.52925ZM9.2573 7.75583L9.45598 7.56654L9.56293 8.17776L9.41054 8.32293L9.25728 8.17693C9.29049 8.11346 9.30924 8.04198 9.30924 7.96638C9.30926 7.89078 9.29049 7.8193 9.2573 7.75583ZM8.26737 6.99596C8.26823 6.99108 8.27262 6.98752 8.2778 6.98752H8.75739L9.18602 7.39589L9.03276 7.54189C8.96614 7.51025 8.89112 7.49238 8.81176 7.49238C8.73241 7.49238 8.65739 7.51027 8.59077 7.54189L8.23169 7.1998L8.26737 6.99596ZM8.99173 7.96638C8.99173 8.06092 8.91102 8.13782 8.81178 8.13782C8.71255 8.13782 8.63184 8.0609 8.63184 7.96638C8.63184 7.87184 8.71255 7.79494 8.81178 7.79494C8.91102 7.79494 8.99173 7.87184 8.99173 7.96638ZM8.14938 7.67044L8.21301 7.60982L8.36626 7.75581C8.33306 7.81928 8.31431 7.89076 8.31431 7.96636C8.31431 8.04197 8.33308 8.11344 8.36626 8.17691L7.99971 8.52615L8.14938 7.67044ZM7.61423 7.75244L5.20413 5.45628L5.57836 5.09972L7.98845 7.39587L7.61423 7.75244ZM6.17714 11.4035L5.80291 11.047L8.21301 8.75078L8.58724 9.10734L6.17714 11.4035ZM9.16108 13.4619H8.46247V12.9677C8.46247 12.7842 8.61917 12.6349 8.81176 12.6349C9.00436 12.6349 9.16106 12.7842 9.16106 12.9677L9.16108 13.4619ZM10.4873 13.4619H9.47866V12.9677C9.47866 12.6174 9.17951 12.3324 8.8118 12.3324C8.4441 12.3324 8.14495 12.6174 8.14495 12.9677V13.4619H7.13628L7.67038 10.4087L8.92406 9.21424C8.98608 9.15516 8.98608 9.05938 8.92406 9.00033L8.43755 8.53682L8.59079 8.39082C8.65741 8.42246 8.73243 8.44032 8.8118 8.44032C8.89116 8.44032 8.96618 8.42244 9.0328 8.39082L9.71371 9.03954L10.4873 13.4619ZM12.0452 10.833L9.6351 8.53685L10.0094 8.18029L12.4194 10.4764L12.0452 10.833Z" fill="#A82B11"/>
<path d="M8.81184 9.91406C8.72416 9.91406 8.65308 9.98179 8.65308 10.0653V10.2267C8.65308 10.3102 8.72416 10.3779 8.81184 10.3779C8.89952 10.3779 8.97061 10.3102 8.97061 10.2267V10.0653C8.97061 9.98179 8.89952 9.91406 8.81184 9.91406Z" fill="#A82B11"/>
<path d="M8.81184 10.8828C8.72416 10.8828 8.65308 10.9505 8.65308 11.0341V11.1954C8.65308 11.279 8.72416 11.3467 8.81184 11.3467C8.89952 11.3467 8.97061 11.279 8.97061 11.1954V11.0341C8.97061 10.9505 8.89952 10.8828 8.81184 10.8828Z" fill="#A82B11"/>
</g>
<mask id="path-5-inside-1_4153_18825" fill="white">
<path d="M14.3347 4.10004L14.3687 4.85134L15.1574 4.88389L14.4915 5.2877L14.8563 5.95464L14.1561 5.6071L13.7324 6.24153L13.6983 5.49024L12.9096 5.45768L13.5756 5.05388L13.2108 4.38694L13.9109 4.73447L14.3347 4.10004Z"/>
</mask>
<path d="M14.3347 4.10004L14.3687 4.85134L15.1574 4.88389L14.4915 5.2877L14.8563 5.95464L14.1561 5.6071L13.7324 6.24153L13.6983 5.49024L12.9096 5.45768L13.5756 5.05388L13.2108 4.38694L13.9109 4.73447L14.3347 4.10004Z" fill="#A82B11"/>
<path d="M14.3347 4.10004L15.3397 4.03485L15.2028 1.01316L13.4985 3.56482L14.3347 4.10004ZM14.3687 4.85134L13.3637 4.91653L13.404 5.80718L14.3057 5.84439L14.3687 4.85134ZM15.1574 4.88389L15.6705 5.72801L18.4786 4.02529L15.2204 3.89083L15.1574 4.88389ZM14.4915 5.2877L13.9784 4.44357L13.1507 4.94543L13.6041 5.77431L14.4915 5.2877ZM14.8563 5.95464L14.3897 6.84466L17.2819 8.2803L15.7436 5.46802L14.8563 5.95464ZM14.1561 5.6071L14.6227 4.71707L13.8223 4.31977L13.32 5.07188L14.1561 5.6071ZM13.7324 6.24153L12.7273 6.30672L12.8642 9.32841L14.5686 6.77675L13.7324 6.24153ZM13.6983 5.49024L14.7034 5.42504L14.663 4.53439L13.7614 4.49718L13.6983 5.49024ZM12.9096 5.45768L12.3965 4.61356L9.58841 6.31628L12.8466 6.45074L12.9096 5.45768ZM13.5756 5.05388L14.0887 5.89801L14.9163 5.39615L14.4629 4.56727L13.5756 5.05388ZM13.2108 4.38694L13.6774 3.49691L10.7851 2.06128L12.3234 4.87355L13.2108 4.38694ZM13.9109 4.73447L13.4443 5.6245L14.2447 6.0218L14.7471 5.26969L13.9109 4.73447ZM13.3296 4.16523L13.3637 4.91653L15.3737 4.78614L15.3397 4.03485L13.3296 4.16523ZM14.3057 5.84439L15.0944 5.87694L15.2204 3.89083L14.4317 3.85828L14.3057 5.84439ZM14.6443 4.03976L13.9784 4.44357L15.0046 6.13182L15.6705 5.72801L14.6443 4.03976ZM13.6041 5.77431L13.9689 6.44125L15.7436 5.46802L15.3788 4.80108L13.6041 5.77431ZM15.3229 5.06461L14.6227 4.71707L13.6895 6.49713L14.3897 6.84466L15.3229 5.06461ZM13.32 5.07188L12.8962 5.70631L14.5686 6.77675L14.9923 6.14232L13.32 5.07188ZM14.7374 6.17634L14.7034 5.42504L12.6933 5.55543L12.7273 6.30672L14.7374 6.17634ZM13.7614 4.49718L12.9726 4.46463L12.8466 6.45074L13.6353 6.48329L13.7614 4.49718ZM13.4227 6.30181L14.0887 5.89801L13.0625 4.20975L12.3965 4.61356L13.4227 6.30181ZM14.4629 4.56727L14.0981 3.90032L12.3234 4.87355L12.6882 5.54049L14.4629 4.56727ZM12.7442 5.27696L13.4443 5.6245L14.3775 3.84444L13.6774 3.49691L12.7442 5.27696ZM14.7471 5.26969L15.1708 4.63526L13.4985 3.56482L13.0747 4.19925L14.7471 5.26969Z" fill="#A82B11" mask="url(#path-5-inside-1_4153_18825)"/>
<mask id="path-7-inside-2_4153_18825" fill="white">
<path d="M8.4137 1.00759L8.89388 1.60442L9.55957 1.20007L9.25716 1.89477L9.95752 2.24174L9.17477 2.33966L9.20959 3.09092L8.72941 2.49409L8.06372 2.89844L8.36613 2.20375L7.66577 1.85677L8.44852 1.75885L8.4137 1.00759Z"/>
</mask>
<path d="M8.4137 1.00759L8.89388 1.60442L9.55957 1.20007L9.25716 1.89477L9.95752 2.24174L9.17477 2.33966L9.20959 3.09092L8.72941 2.49409L8.06372 2.89844L8.36613 2.20375L7.66577 1.85677L8.44852 1.75885L8.4137 1.00759Z" fill="#A82B11"/>
<path d="M8.4137 1.00759L9.201 0.406107L7.26431 -2.00104L7.40478 1.02897L8.4137 1.00759ZM8.89388 1.60442L8.10658 2.2059L8.67605 2.91371L9.44054 2.44934L8.89388 1.60442ZM9.55957 1.20007L10.49 1.60679L11.7616 -1.31447L9.01291 0.355143L9.55957 1.20007ZM9.25716 1.89477L8.32675 1.48805L7.95281 2.34707L8.81884 2.77612L9.25716 1.89477ZM9.95752 2.24174L10.1088 3.22376L13.3409 2.81944L10.3958 1.36038L9.95752 2.24174ZM9.17477 2.33966L9.02348 1.35763L8.12454 1.47008L8.16585 2.36104L9.17477 2.33966ZM9.20959 3.09092L8.42229 3.6924L10.359 6.09955L10.2185 3.06953L9.20959 3.09092ZM8.72941 2.49409L9.51671 1.89261L8.94724 1.1848L8.18275 1.64917L8.72941 2.49409ZM8.06372 2.89844L7.13331 2.49172L5.86164 5.41299L8.61038 3.74336L8.06372 2.89844ZM8.36613 2.20375L9.29654 2.61047L9.67049 1.75144L8.80446 1.32239L8.36613 2.20375ZM7.66577 1.85677L7.51448 0.874744L4.28238 1.27907L7.22744 2.73812L7.66577 1.85677ZM8.44852 1.75885L8.59981 2.74088L9.49875 2.62842L9.45744 1.73746L8.44852 1.75885ZM7.62639 1.60907L8.10658 2.2059L9.68119 1.00294L9.201 0.406107L7.62639 1.60907ZM9.44054 2.44934L10.1062 2.04499L9.01291 0.355143L8.34722 0.759492L9.44054 2.44934ZM8.62916 0.793348L8.32675 1.48805L10.1876 2.30149L10.49 1.60679L8.62916 0.793348ZM8.81884 2.77612L9.51919 3.12309L10.3958 1.36038L9.69549 1.01341L8.81884 2.77612ZM9.80623 1.25971L9.02348 1.35763L9.32605 3.32168L10.1088 3.22376L9.80623 1.25971ZM8.16585 2.36104L8.20068 3.11231L10.2185 3.06953L10.1837 2.31827L8.16585 2.36104ZM9.9969 2.48944L9.51671 1.89261L7.9421 3.09557L8.42229 3.6924L9.9969 2.48944ZM8.18275 1.64917L7.51706 2.05352L8.61038 3.74336L9.27607 3.33902L8.18275 1.64917ZM8.99413 3.30516L9.29654 2.61047L7.43572 1.79702L7.13331 2.49172L8.99413 3.30516ZM8.80446 1.32239L8.1041 0.97542L7.22744 2.73812L7.9278 3.0851L8.80446 1.32239ZM7.81706 2.8388L8.59981 2.74088L8.29724 0.776825L7.51448 0.874744L7.81706 2.8388ZM9.45744 1.73746L9.42262 0.986199L7.40478 1.02897L7.43961 1.78024L9.45744 1.73746Z" fill="#A82B11" mask="url(#path-7-inside-2_4153_18825)"/>
<mask id="path-9-inside-3_4153_18825" fill="white">
<path d="M13.479 9.92591L14.105 10.384L14.6381 9.82928L14.5347 10.5749L15.3055 10.7373L14.576 11.0249L14.8137 11.742L14.1878 11.2839L13.6546 11.8386L13.758 11.093L12.9872 10.9306L13.7167 10.643L13.479 9.92591Z"/>
</mask>
<path d="M13.479 9.92591L14.105 10.384L14.6381 9.82928L14.5347 10.5749L15.3055 10.7373L14.576 11.0249L14.8137 11.742L14.1878 11.2839L13.6546 11.8386L13.758 11.093L12.9872 10.9306L13.7167 10.643L13.479 9.92591Z" fill="#A82B11"/>
<path d="M13.479 9.92591L14.0908 9.15178L11.5359 7.28203L12.5062 10.2089L13.479 9.92591ZM14.105 10.384L13.4931 11.1581L14.2368 11.7023L14.861 11.0528L14.105 10.384ZM14.6381 9.82928L15.6504 9.97292L16.0802 6.87345L13.882 9.16047L14.6381 9.82928ZM14.5347 10.5749L13.5224 10.4312L13.3973 11.3337L14.3302 11.5303L14.5347 10.5749ZM15.3055 10.7373L15.7066 11.643L18.7141 10.4572L15.51 9.78192L15.3055 10.7373ZM14.576 11.0249L14.1749 10.1193L13.3208 10.456L13.6032 11.3079L14.576 11.0249ZM14.8137 11.742L14.2019 12.5161L16.7569 14.3859L15.7865 11.459L14.8137 11.742ZM14.1878 11.2839L14.7996 10.5098L14.056 9.96559L13.4317 10.6151L14.1878 11.2839ZM13.6546 11.8386L12.6423 11.695L12.2126 14.7945L14.4107 12.5074L13.6546 11.8386ZM13.758 11.093L14.7703 11.2367L14.8954 10.3343L13.9626 10.1376L13.758 11.093ZM12.9872 10.9306L12.5862 10.0249L9.57865 11.2107L12.7827 11.886L12.9872 10.9306ZM13.7167 10.643L14.1178 11.5486L14.9719 11.2119L14.6895 10.36L13.7167 10.643ZM12.8672 10.7L13.4931 11.1581L14.7168 9.60986L14.0908 9.15178L12.8672 10.7ZM14.861 11.0528L15.3942 10.4981L13.882 9.16047L13.3489 9.71519L14.861 11.0528ZM13.6258 9.68564L13.5224 10.4312L15.547 10.7185L15.6504 9.97292L13.6258 9.68564ZM14.3302 11.5303L15.1009 11.6927L15.51 9.78192L14.7393 9.61947L14.3302 11.5303ZM14.9044 9.83168L14.1749 10.1193L14.9771 11.9306L15.7066 11.643L14.9044 9.83168ZM13.6032 11.3079L13.8409 12.025L15.7865 11.459L15.5488 10.742L13.6032 11.3079ZM15.4256 10.9679L14.7996 10.5098L13.576 12.058L14.2019 12.5161L15.4256 10.9679ZM13.4317 10.6151L12.8985 11.1698L14.4107 12.5074L14.9439 11.9527L13.4317 10.6151ZM14.6669 11.9823L14.7703 11.2367L12.7457 10.9494L12.6423 11.695L14.6669 11.9823ZM13.9626 10.1376L13.1918 9.97518L12.7827 11.886L13.5535 12.0484L13.9626 10.1376ZM13.3883 11.8362L14.1178 11.5486L13.3157 9.73735L12.5862 10.0249L13.3883 11.8362ZM14.6895 10.36L14.4518 9.64294L12.5062 10.2089L12.7439 10.926L14.6895 10.36Z" fill="#A82B11" mask="url(#path-9-inside-3_4153_18825)"/>
<mask id="path-11-inside-4_4153_18825" fill="white">
<path d="M4.22505 9.98429L3.92262 10.6789L4.62302 11.026L3.84033 11.1238L3.87512 11.8751L3.39473 11.2783L2.72925 11.6826L3.03167 10.988L2.33128 10.641L3.11396 10.5431L3.07918 9.79177L3.55956 10.3887L4.22505 9.98429Z"/>
</mask>
<path d="M4.22505 9.98429L3.92262 10.6789L4.62302 11.026L3.84033 11.1238L3.87512 11.8751L3.39473 11.2783L2.72925 11.6826L3.03167 10.988L2.33128 10.641L3.11396 10.5431L3.07918 9.79177L3.55956 10.3887L4.22505 9.98429Z" fill="#A82B11"/>
<path d="M4.22505 9.98429L5.16948 10.3524L6.40978 7.50371L3.68051 9.16209L4.22505 9.98429ZM3.92262 10.6789L2.97819 10.3108L2.61866 11.1365L3.44511 11.5461L3.92262 10.6789ZM4.62302 11.026L4.74767 11.9939L7.98673 11.589L5.10052 10.1588L4.62302 11.026ZM3.84033 11.1238L3.71568 10.1558L2.77639 10.2733L2.81813 11.1749L3.84033 11.1238ZM3.87512 11.8751L3.06167 12.4738L5.04127 14.9334L4.89732 11.824L3.87512 11.8751ZM3.39473 11.2783L4.20818 10.6797L3.64133 9.97536L2.8502 10.4561L3.39473 11.2783ZM2.72925 11.6826L1.78481 11.3145L0.544519 14.1632L3.27378 12.5048L2.72925 11.6826ZM3.03167 10.988L3.97611 11.3562L4.33563 10.5304L3.50918 10.1209L3.03167 10.988ZM2.33128 10.641L2.20663 9.67299L-1.03246 10.0779L1.85377 11.5081L2.33128 10.641ZM3.11396 10.5431L3.23861 11.5111L4.1779 11.3937L4.13616 10.492L3.11396 10.5431ZM3.07918 9.79177L3.89262 9.19317L1.91304 6.73354L2.05698 9.8429L3.07918 9.79177ZM3.55956 10.3887L2.74612 10.9873L3.31296 11.6916L4.1041 11.2108L3.55956 10.3887ZM3.28061 9.61615L2.97819 10.3108L4.86706 11.047L5.16948 10.3524L3.28061 9.61615ZM3.44511 11.5461L4.14551 11.8931L5.10052 10.1588L4.40013 9.81173L3.44511 11.5461ZM4.49836 10.058L3.71568 10.1558L3.96499 12.0918L4.74767 11.9939L4.49836 10.058ZM2.81813 11.1749L2.85292 11.9263L4.89732 11.824L4.86254 11.0727L2.81813 11.1749ZM4.68856 11.2765L4.20818 10.6797L2.58129 11.8769L3.06167 12.4738L4.68856 11.2765ZM2.8502 10.4561L2.18472 10.8604L3.27378 12.5048L3.93927 12.1005L2.8502 10.4561ZM3.67368 12.0508L3.97611 11.3562L2.08724 10.6199L1.78481 11.3145L3.67368 12.0508ZM3.50918 10.1209L2.80878 9.77379L1.85377 11.5081L2.55417 11.8552L3.50918 10.1209ZM2.45593 11.6089L3.23861 11.5111L2.98931 9.57516L2.20663 9.67299L2.45593 11.6089ZM4.13616 10.492L4.10138 9.74065L2.05698 9.8429L2.09176 10.5942L4.13616 10.492ZM2.26573 10.3904L2.74612 10.9873L4.37301 9.79005L3.89262 9.19317L2.26573 10.3904ZM4.1041 11.2108L4.76958 10.8065L3.68051 9.16209L3.01503 9.56646L4.1041 11.2108Z" fill="#A82B11" mask="url(#path-11-inside-4_4153_18825)"/>
<mask id="path-13-inside-5_4153_18825" fill="white">
<path d="M2.76238 4.16458L3.29534 4.71927L3.9215 4.26118L3.6838 4.97835L4.41323 5.26585L3.64241 5.42839L3.74583 6.1739L3.21288 5.61922L2.58671 6.0773L2.82442 5.36014L2.09498 5.07264L2.8658 4.9101L2.76238 4.16458Z"/>
</mask>
<path d="M2.76238 4.16458L3.29534 4.71927L3.9215 4.26118L3.6838 4.97835L4.41323 5.26585L3.64241 5.42839L3.74583 6.1739L3.21288 5.61922L2.58671 6.0773L2.82442 5.36014L2.09498 5.07264L2.8658 4.9101L2.76238 4.16458Z" fill="#A82B11"/>
<path d="M2.76238 4.16458L3.49582 3.50105L1.33885 1.25613L1.75742 4.27336L2.76238 4.16458ZM3.29534 4.71927L2.56189 5.3828L3.19426 6.04095L3.91741 5.51191L3.29534 4.71927ZM3.9215 4.26118L4.88747 4.58356L5.88369 1.57797L3.29942 3.46855L3.9215 4.26118ZM3.6838 4.97835L2.71782 4.65597L2.42571 5.53727L3.32209 5.89057L3.6838 4.97835ZM4.41323 5.26585L4.65069 6.22936L7.83197 5.55852L4.77493 4.35363L4.41323 5.26585ZM3.64241 5.42839L3.40495 4.46488L2.51474 4.6526L2.63745 5.53717L3.64241 5.42839ZM3.74583 6.1739L3.01239 6.83744L5.16936 9.08236L4.7508 6.06513L3.74583 6.1739ZM3.21288 5.61922L3.94632 4.95568L3.31395 4.29754L2.5908 4.82658L3.21288 5.61922ZM2.58671 6.0773L1.62074 5.75492L0.624506 8.76054L3.20879 6.86994L2.58671 6.0773ZM2.82442 5.36014L3.79039 5.68252L4.0825 4.80122L3.18613 4.44792L2.82442 5.36014ZM2.09498 5.07264L1.85752 4.10913L-1.32374 4.77997L1.73328 5.98486L2.09498 5.07264ZM2.8658 4.9101L3.10326 5.87361L3.99348 5.68589L3.87077 4.80132L2.8658 4.9101ZM2.02894 4.82812L2.56189 5.3828L4.02878 4.05574L3.49582 3.50105L2.02894 4.82812ZM3.91741 5.51191L4.54358 5.05382L3.29942 3.46855L2.67326 3.92663L3.91741 5.51191ZM2.95553 3.93881L2.71782 4.65597L4.64977 5.30073L4.88747 4.58356L2.95553 3.93881ZM3.32209 5.89057L4.05153 6.17806L4.77493 4.35363L4.0455 4.06613L3.32209 5.89057ZM4.17577 4.30234L3.40495 4.46488L3.87987 6.3919L4.65069 6.22936L4.17577 4.30234ZM2.63745 5.53717L2.74087 6.28268L4.7508 6.06513L4.64738 5.31961L2.63745 5.53717ZM4.47927 5.51037L3.94632 4.95568L2.47943 6.28275L3.01239 6.83744L4.47927 5.51037ZM2.5908 4.82658L1.96463 5.28466L3.20879 6.86994L3.83495 6.41186L2.5908 4.82658ZM3.55268 6.39968L3.79039 5.68252L1.85845 5.03776L1.62074 5.75492L3.55268 6.39968ZM3.18613 4.44792L2.45669 4.16042L1.73328 5.98486L2.46271 6.27236L3.18613 4.44792ZM2.33244 6.03615L3.10326 5.87361L2.62834 3.94659L1.85752 4.10913L2.33244 6.03615ZM3.87077 4.80132L3.76734 4.05581L1.75742 4.27336L1.86084 5.01888L3.87077 4.80132Z" fill="#A82B11" mask="url(#path-13-inside-5_4153_18825)"/>
<defs>
<clipPath id="clip0_4153_18825">
<rect width="10.0767" height="9.60035" fill="white" transform="translate(3.77344 4.16406)"/>
</clipPath>
</defs>
</svg>
