<svg width="35" height="32" viewBox="0 0 35 32" fill="none" xmlns="http://www.w3.org/2000/svg">
<path d="M34.2618 16C34.2618 24.7171 26.8417 31.8 17.6679 31.8C8.49413 31.8 1.07402 24.7171 1.07402 16C1.07402 7.28292 8.49413 0.2 17.6679 0.2C26.8417 0.2 34.2618 7.28292 34.2618 16Z" stroke="#A82B11" stroke-width="0.4"/>
<g clip-path="url(#clip0_4153_18823)">
<path d="M25.9205 20.7312L20.6512 15.711C20.5272 15.5928 20.3261 15.5928 20.2022 15.711L20.0858 15.8219L19.8719 14.5994L24.7229 9.97776C24.8469 9.85959 24.8469 9.66804 24.7229 9.54994L23.5253 8.40893C23.4658 8.35219 23.385 8.32031 23.3008 8.32031C23.2166 8.32031 23.1358 8.35219 23.0763 8.40893L17.8773 13.3621H16.9636C16.6479 13.3621 16.3807 13.5734 16.3202 13.8667L11.7893 9.54987C11.6808 9.44648 11.5133 9.43358 11.39 9.51109C11.3724 9.52219 11.3558 9.53509 11.3402 9.54987L10.1426 10.6908C10.083 10.7476 10.0496 10.8245 10.0496 10.9048C10.0496 10.985 10.083 11.062 10.1426 11.1187L15.4119 16.1389C15.4739 16.1979 15.5551 16.2275 15.6364 16.2275C15.7176 16.2275 15.7989 16.198 15.8609 16.1389L15.934 16.0692L15.6347 17.7806L11.3402 21.8721C11.2161 21.9903 11.2161 22.1818 11.3402 22.2999L12.5377 23.4409C12.5972 23.4976 12.678 23.5295 12.7622 23.5295C12.8464 23.5295 12.9272 23.4976 12.9868 23.4409L14.976 21.5457L14.0365 26.9159H13.2894C13.1141 26.9159 12.9719 27.0514 12.9719 27.2185C12.9719 27.3855 13.1141 27.521 13.2894 27.521H22.7736C22.949 27.521 23.0911 27.3855 23.0911 27.2185C23.0911 27.0514 22.949 26.9159 22.7736 26.9159H22.0265L20.608 18.8074L24.2738 22.2999C24.328 22.3516 24.397 22.3807 24.4679 22.3871C24.478 22.3881 24.4881 22.3885 24.4983 22.3885C24.5795 22.3885 24.6608 22.359 24.7228 22.2999L25.9204 21.159C25.98 21.1023 26.0134 21.0253 26.0134 20.9451C26.0135 20.8648 25.98 20.7879 25.9205 20.7312ZM23.3008 9.05069L24.0493 9.76382L19.2291 14.3562L18.4806 13.6431L23.3008 9.05069ZM18.9226 15.5038L19.3199 15.1253L19.5338 16.3477L19.229 16.638L18.9225 16.3461C18.9889 16.2191 19.0264 16.0762 19.0264 15.925C19.0265 15.7737 18.9889 15.6308 18.9226 15.5038ZM16.9427 13.9841C16.9444 13.9744 16.9532 13.9672 16.9636 13.9672H17.9227L18.78 14.784L18.4735 15.076C18.3402 15.0127 18.1902 14.977 18.0315 14.977C17.8728 14.977 17.7227 15.0127 17.5895 15.076L16.8713 14.3918L16.9427 13.9841ZM18.3914 15.925C18.3914 16.114 18.23 16.2678 18.0315 16.2678C17.8331 16.2678 17.6716 16.114 17.6716 15.925C17.6716 15.7359 17.8331 15.5821 18.0315 15.5821C18.23 15.5821 18.3914 15.7359 18.3914 15.925ZM16.7067 15.3331L16.834 15.2118L17.1405 15.5038C17.0741 15.6308 17.0366 15.7737 17.0366 15.9249C17.0366 16.0761 17.0741 16.2191 17.1405 16.346L16.4074 17.0445L16.7067 15.3331ZM15.6364 15.4971L10.8162 10.9048L11.5647 10.1916L16.3849 14.7839L15.6364 15.4971ZM12.7622 22.7992L12.0138 22.0861L16.834 17.4937L17.5824 18.2069L12.7622 22.7992ZM18.7301 26.9159H17.3329V25.9276C17.3329 25.5606 17.6463 25.262 18.0315 25.262C18.4167 25.262 18.7301 25.5606 18.7301 25.9276L18.7301 26.9159ZM21.3826 26.9159H19.3653V25.9276C19.3653 25.227 18.767 24.657 18.0316 24.657C17.2962 24.657 16.6979 25.227 16.6979 25.9276V26.9159H14.6805L15.7487 20.8096L18.2561 18.4207C18.3801 18.3025 18.3801 18.1109 18.2561 17.9929L17.2831 17.0658L17.5895 16.7738C17.7228 16.8371 17.8728 16.8728 18.0316 16.8728C18.1903 16.8728 18.3403 16.8371 18.4736 16.7738L19.8354 18.0713L21.3826 26.9159ZM24.4984 21.6582L19.6782 17.0659L20.4267 16.3528L25.2468 20.9451L24.4984 21.6582Z" fill="#A82B11"/>
<path d="M18.0316 19.8125C17.8563 19.8125 17.7141 19.948 17.7141 20.115V20.4377C17.7141 20.6048 17.8563 20.7402 18.0316 20.7402C18.207 20.7402 18.3492 20.6048 18.3492 20.4377V20.115C18.3492 19.948 18.207 19.8125 18.0316 19.8125Z" fill="#A82B11"/>
<path d="M18.0316 21.75C17.8563 21.75 17.7141 21.8855 17.7141 22.0525V22.3752C17.7141 22.5423 17.8563 22.6777 18.0316 22.6777C18.207 22.6777 18.3492 22.5423 18.3492 22.3752V22.0525C18.3492 21.8855 18.207 21.75 18.0316 21.75Z" fill="#A82B11"/>
</g>
<path d="M28.6434 9.7357L28.6632 10.1728L29.0625 10.1893L28.7208 10.3964L28.9079 10.7386L28.5536 10.5627L28.307 10.9318L28.2872 10.4947L27.888 10.4783L28.2297 10.2711L28.0425 9.92889L28.3969 10.1048L28.6434 9.7357Z" fill="#A82B11" stroke="#A82B11"/>
<path d="M17.8103 3.51949L18.0871 3.86348L18.4263 3.6574L18.2704 4.01569L18.6315 4.19462L18.2326 4.24453L18.2527 4.67753L17.9759 4.33354L17.6367 4.5396L17.7926 4.18134L17.4314 4.00239L17.8304 3.95249L17.8103 3.51949Z" fill="#A82B11" stroke="#A82B11"/>
<path d="M28.3375 21.1738L28.6838 21.4272L28.9632 21.1365L28.9087 21.5291L29.3146 21.6147L28.9324 21.7654L29.0639 22.1621L28.7176 21.9087L28.4382 22.1993L28.4927 21.8067L28.0868 21.7211L28.469 21.5704L28.3375 21.1738Z" fill="#A82B11" stroke="#A82B11"/>
<path d="M7.76568 21.2089L7.60122 21.5866L7.97214 21.7704L7.55665 21.8223L7.57512 22.2212L7.32072 21.9051L6.95882 22.125L7.12329 21.7472L6.75238 21.5634L7.16785 21.5115L7.14938 21.1127L7.40378 21.4288L7.76568 21.2089Z" fill="#A82B11" stroke="#A82B11"/>
<path d="M6.64448 9.78339L6.94809 10.0994L7.26987 9.86398L7.14651 10.2362L7.52504 10.3854L7.12894 10.4689L7.18786 10.8936L6.88425 10.5776L6.56248 10.813L6.68584 10.4408L6.30729 10.2916L6.7034 10.2081L6.64448 9.78339Z" fill="#A82B11" stroke="#A82B11"/>
<defs>
<clipPath id="clip0_4153_18823">
<rect width="20.1534" height="19.2007" fill="white" transform="translate(7.95483 8.32031)"/>
</clipPath>
</defs>
</svg>
