<svg width="24" height="18" viewBox="0 0 24 18" fill="none" xmlns="http://www.w3.org/2000/svg">
<path d="M0.153423 4.49792C0.852236 4.07876 3.63671 6.6416 4.44042 7.71331C7.11994 6.1054 9.53114 5.03375 9.53114 5.03375C9.53114 5.03375 8.45949 0.345074 9.93324 0.61259C11.2756 0.856902 13.7612 2.6075 15.8277 4.23003C19.311 5.1679 23.5236 7.55431 24 9.85657C22.6605 14.2777 15.024 16.421 10.4691 17.3589C8.22698 17.8207 9.53114 14.6798 9.53114 14.6798C9.53114 14.6798 7.11994 13.6077 4.44042 12.0003C3.63666 13.0719 0.852236 15.6348 0.153423 15.2156C-0.51656 14.8136 1.22508 9.85657 1.22508 9.85657C1.22508 9.85657 -0.51656 4.90001 0.153423 4.49792ZM19.2333 10.0939C19.8439 10.0939 20.3387 9.59918 20.3387 8.98854C20.3387 8.37832 19.8439 7.88356 19.2333 7.88356C18.6231 7.88356 18.1283 8.37832 18.1283 8.98854C18.1283 9.59918 18.6231 10.0939 19.2333 10.0939Z" fill="#41479B"/>
</svg>
