<svg width="33" height="32" viewBox="0 0 33 32" fill="none" xmlns="http://www.w3.org/2000/svg">
<rect x="0.503662" width="32" height="32" rx="5" fill="#E66B5B"/>
<path fill-rule="evenodd" clip-rule="evenodd" d="M11.2657 6.02344C8.64891 6.02344 6.52759 8.14476 6.52759 10.7615V21.2377C6.52759 23.8545 8.64891 25.9758 11.2657 25.9758H21.7419C24.3587 25.9758 26.48 23.8545 26.48 21.2377V10.7615C26.48 8.14476 24.3587 6.02344 21.7419 6.02344H11.2657ZM5.52759 10.7615C5.52759 7.59247 8.09662 5.02344 11.2657 5.02344H21.7419C24.9109 5.02344 27.48 7.59247 27.48 10.7615V21.2377C27.48 24.4068 24.9109 26.9758 21.7419 26.9758H11.2657C8.09662 26.9758 5.52759 24.4068 5.52759 21.2377V10.7615ZM17.0904 12.3035C16.3226 12.1897 15.5384 12.3208 14.8494 12.6784C14.1604 13.0359 13.6016 13.6015 13.2526 14.2949C12.9036 14.9883 12.7822 15.774 12.9055 16.5404C13.0288 17.3068 13.3907 18.0148 13.9395 18.5637C14.4884 19.1126 15.1964 19.4744 15.9628 19.5977C16.7292 19.721 17.5149 19.5996 18.2083 19.2506C18.9017 18.9016 19.4673 18.3428 19.8249 17.6538C20.1824 16.9648 20.3135 16.1806 20.1997 15.4128C20.0835 14.6295 19.7185 13.9044 19.1587 13.3445C18.5988 12.7847 17.8737 12.4197 17.0904 12.3035ZM14.3888 11.7907C15.2645 11.3363 16.2612 11.1697 17.2371 11.3144C18.2326 11.462 19.1542 11.9258 19.8658 12.6374C20.5774 13.349 21.0412 14.2706 21.1888 15.2661C21.3336 16.242 21.1669 17.2387 20.7125 18.1144C20.2581 18.9901 19.5391 19.7002 18.6579 20.1438C17.7766 20.5874 16.778 20.7417 15.8039 20.585C14.8299 20.4283 13.9301 19.9684 13.2324 19.2708C12.5348 18.5732 12.0749 17.6733 11.9182 16.6993C11.7615 15.7252 11.9158 14.7266 12.3594 13.8453C12.803 12.9641 13.5131 12.2451 14.3888 11.7907ZM22.2657 9.73772C21.9895 9.73772 21.7657 9.96158 21.7657 10.2377C21.7657 10.5139 21.9895 10.7377 22.2657 10.7377H22.2757C22.5518 10.7377 22.7757 10.5139 22.7757 10.2377C22.7757 9.96158 22.5518 9.73772 22.2757 9.73772H22.2657Z" fill="#F7E4B6"/>
</svg>
