<svg width="28" height="35" viewBox="0 0 28 35" fill="none" xmlns="http://www.w3.org/2000/svg">
<path d="M16.2565 33.2173C14.8835 34.4633 12.7604 34.3604 11.5143 32.9874C4.31082 25.0502 0.666992 18.828 0.666992 14.0832C0.666992 6.56137 6.5599 0.75 14.0003 0.75C21.4408 0.75 27.3337 6.56137 27.3337 14.0832C27.3337 18.828 23.6898 25.0502 16.4864 32.9874C16.4135 33.0677 16.3368 33.1444 16.2565 33.2173ZM24.0003 14.0832C24.0003 8.41279 19.6101 4.08333 14.0003 4.08333C8.39053 4.08333 4.00033 8.41279 4.00033 14.0832C4.00033 17.7496 7.2997 23.3836 13.9827 30.7473C20.7009 23.3836 24.0003 17.7496 24.0003 14.0832ZM14.0003 19.0833C11.2389 19.0833 9.00033 16.8448 9.00033 14.0833C9.00033 11.3219 11.2389 9.08333 14.0003 9.08333C16.7617 9.08333 19.0003 11.3219 19.0003 14.0833C19.0003 16.8448 16.7617 19.0833 14.0003 19.0833ZM14.0003 15.75C14.9208 15.75 15.667 15.0038 15.667 14.0833C15.667 13.1629 14.9208 12.4167 14.0003 12.4167C13.0799 12.4167 12.3337 13.1629 12.3337 14.0833C12.3337 15.0038 13.0799 15.75 14.0003 15.75Z" fill="#A82B11"/>
</svg>
