<svg width="150" height="50" viewBox="0 0 150 50" fill="none" xmlns="http://www.w3.org/2000/svg">
<circle cx="74.9991" cy="24.9991" r="24.4991" stroke="#F9E4D2"/>
<rect y="18.1641" width="150" height="16" fill="#A82B11"/>
<g clip-path="url(#clip0_12564_18159)">
<path d="M87.2835 32.3834L79.4397 24.5397C79.2551 24.3551 78.9558 24.3551 78.7713 24.5397L78.598 24.713L78.2797 22.8029L85.5008 15.5819C85.6854 15.3972 85.6854 15.0979 85.5008 14.9134L83.7181 13.1306C83.6294 13.042 83.5092 12.9922 83.3839 12.9922C83.2585 12.9922 83.1383 13.042 83.0497 13.1306L75.3105 20.8698H73.9503C73.4805 20.8698 73.0827 21.1998 72.9927 21.658L66.248 14.9133C66.0865 14.7518 65.8372 14.7316 65.6537 14.8527C65.6275 14.8701 65.6027 14.8902 65.5795 14.9133L63.7968 16.696C63.7081 16.7846 63.6583 16.9049 63.6583 17.0302C63.6583 17.1556 63.7081 17.2759 63.7968 17.3645L71.6405 25.2082C71.7328 25.3005 71.8538 25.3467 71.9747 25.3467C72.0957 25.3467 72.2167 25.3006 72.309 25.2082L72.4178 25.0994L71.9722 27.7733L65.5795 34.1661C65.3948 34.3507 65.3948 34.65 65.5795 34.8345L67.3621 36.6172C67.4507 36.7059 67.571 36.7557 67.6963 36.7557C67.8217 36.7557 67.942 36.7059 68.0306 36.6172L70.9917 33.6562L69.5933 42.0468H68.4811C68.2201 42.0468 68.0084 42.2584 68.0084 42.5195C68.0084 42.7805 68.2201 42.9921 68.4811 42.9921H82.5991C82.8601 42.9921 83.0718 42.7805 83.0718 42.5195C83.0718 42.2584 82.8601 42.0468 82.5991 42.0468H81.4869L79.3754 29.3777L84.8322 34.8345C84.9129 34.9153 85.0157 34.9607 85.1211 34.9708C85.1362 34.9723 85.1513 34.973 85.1664 34.973C85.2874 34.973 85.4084 34.9269 85.5006 34.8345L87.2834 33.0519C87.372 32.9633 87.4218 32.843 87.4218 32.7177C87.4219 32.5923 87.3721 32.4721 87.2835 32.3834ZM83.3839 14.1334L84.4981 15.2476L77.3228 22.4229L76.2086 21.3087L83.3839 14.1334ZM76.8665 24.2161L77.458 23.6246L77.7764 25.5345L77.3227 25.9882L76.8664 25.532C76.9653 25.3336 77.0211 25.1103 77.0211 24.874C77.0212 24.6378 76.9653 24.4144 76.8665 24.2161ZM73.9193 21.8415C73.9219 21.8263 73.9349 21.8152 73.9503 21.8152H75.3782L76.6543 23.0913L76.198 23.5475C75.9997 23.4487 75.7763 23.3928 75.5401 23.3928C75.3038 23.3928 75.0804 23.4487 74.8821 23.5475L73.8131 22.4785L73.9193 21.8415ZM76.0758 24.874C76.0758 25.1694 75.8355 25.4097 75.5401 25.4097C75.2447 25.4097 75.0044 25.1694 75.0044 24.874C75.0044 24.5786 75.2447 24.3383 75.5401 24.3383C75.8355 24.3383 76.0758 24.5786 76.0758 24.874ZM73.568 23.9492L73.7575 23.7598L74.2137 24.216C74.1149 24.4143 74.059 24.6377 74.059 24.8739C74.059 25.1102 74.1149 25.3336 74.2137 25.5319L73.1224 26.6232L73.568 23.9492ZM71.9748 24.2054L64.7995 17.0302L65.9137 15.916L73.0889 23.0912L71.9748 24.2054ZM67.6963 35.6146L66.5822 34.5004L73.7575 27.3252L74.8716 28.4394L67.6963 35.6146ZM76.58 42.0468H74.5001V40.5026C74.5001 39.9292 74.9667 39.4627 75.5401 39.4627C76.1135 39.4627 76.58 39.9292 76.58 40.5026L76.58 42.0468ZM80.5285 42.0468H77.5255V40.5026C77.5255 39.4079 76.6349 38.5173 75.5402 38.5173C74.4455 38.5173 73.5548 39.4079 73.5548 40.5026V42.0468H70.5518L72.142 32.506L75.8744 28.7734C76.059 28.5888 76.059 28.2895 75.8744 28.105L74.426 26.6565L74.8822 26.2003C75.0805 26.2992 75.3039 26.355 75.5402 26.355C75.7764 26.355 75.9998 26.2991 76.1981 26.2003L78.2253 28.2275L80.5285 42.0468ZM85.1665 33.8319L77.9913 26.6567L79.1055 25.5424L86.2807 32.7177L85.1665 33.8319Z" fill="#F9E4D2"/>
<path d="M75.5401 30.9531C75.2791 30.9531 75.0674 31.1648 75.0674 31.4258V31.93C75.0674 32.191 75.2791 32.4027 75.5401 32.4027C75.8012 32.4027 76.0128 32.191 76.0128 31.93V31.4258C76.0128 31.1648 75.8012 30.9531 75.5401 30.9531Z" fill="#F9E4D2"/>
<path d="M75.5401 33.9766C75.2791 33.9766 75.0674 34.1882 75.0674 34.4492V34.9534C75.0674 35.2145 75.2791 35.4261 75.5401 35.4261C75.8012 35.4261 76.0128 35.2145 76.0128 34.9534V34.4492C76.0128 34.1882 75.8012 33.9766 75.5401 33.9766Z" fill="#F9E4D2"/>
</g>
<path d="M90.9831 10.7999L91.0844 13.1476L93.4326 13.2493L91.4499 14.5112L92.536 16.5953L90.4516 15.5093L89.19 17.4918L89.0886 15.1441L86.7405 15.0424L88.7231 13.7805L87.637 11.6964L89.7215 12.7824L90.9831 10.7999Z" fill="#F9E4D2"/>
<path d="M74.3554 3.14581L75.785 5.01084L77.7669 3.7473L76.8665 5.91815L78.9516 7.0024L76.6212 7.30838L76.7249 9.656L75.2953 7.79097L73.3135 9.05452L74.2138 6.88368L72.1287 5.79942L74.4591 5.49343L74.3554 3.14581Z" fill="#F9E4D2"/>
<path d="M88.4353 33.0136L90.2989 34.4451L91.8862 32.7117L91.5784 35.0416L93.8731 35.5492L91.7013 36.4479L92.409 38.6887L90.5455 37.2573L88.9582 38.9907L89.266 36.6608L86.9713 36.1531L89.1431 35.2544L88.4353 33.0136Z" fill="#F9E4D2"/>
<path d="M62.8849 33.194L61.9845 35.3646L64.0697 36.4491L61.7395 36.7549L61.8431 39.1027L60.4129 37.2375L58.4317 38.5011L59.332 36.3306L57.2468 35.246L59.577 34.9403L59.4734 32.5924L60.9036 34.4576L62.8849 33.194Z" fill="#F9E4D2"/>
<path d="M58.5303 11.0056L60.117 12.7389L61.9812 11.3074L61.2735 13.5485L63.4451 14.4469L61.1503 14.9548L61.4582 17.2845L59.8715 15.5511L58.0073 16.9826L58.715 14.7416L56.5433 13.8432L58.8382 13.3352L58.5303 11.0056Z" fill="#F9E4D2"/>
<path d="M7.032 21.7641H8.592V30.1641H7.032V21.7641ZM2.688 30.1641H1.128V21.7641H2.688V30.1641ZM7.152 26.5641H2.556V25.2321H7.152V26.5641ZM9.65484 30.1641L13.4348 21.7641H14.9708L18.7628 30.1641H17.1308L13.8788 22.5921H14.5028L11.2628 30.1641H9.65484ZM11.3948 28.2201L11.8148 26.9961H16.3508L16.7708 28.2201H11.3948ZM18.8541 30.1641L22.6341 21.7641H24.1701L27.9621 30.1641H26.3301L23.0781 22.5921H23.7021L20.4621 30.1641H18.8541ZM20.5941 28.2201L21.0141 26.9961H25.5501L25.9701 28.2201H20.5941ZM29.0303 30.1641V21.7641H32.4863C33.2303 21.7641 33.8663 21.8841 34.3943 22.1241C34.9303 22.3641 35.3423 22.7081 35.6303 23.1561C35.9183 23.6041 36.0623 24.1361 36.0623 24.7521C36.0623 25.3681 35.9183 25.9001 35.6303 26.3481C35.3423 26.7881 34.9303 27.1281 34.3943 27.3681C33.8663 27.6001 33.2303 27.7161 32.4863 27.7161H29.8943L30.5903 27.0081V30.1641H29.0303ZM34.5263 30.1641L32.4023 27.1161H34.0703L36.2063 30.1641H34.5263ZM30.5903 27.1761L29.8943 26.4321H32.4143C33.1023 26.4321 33.6183 26.2841 33.9623 25.9881C34.3143 25.6921 34.4903 25.2801 34.4903 24.7521C34.4903 24.2161 34.3143 23.8041 33.9623 23.5161C33.6183 23.2281 33.1023 23.0841 32.4143 23.0841H29.8943L30.5903 22.3161V27.1761ZM37.8077 30.1641V21.7641H39.3677V28.8441H43.7597V30.1641H37.8077ZM46.4313 25.2561H50.6073V26.5401H46.4313V25.2561ZM46.5513 28.8561H51.2913V30.1641H44.9913V21.7641H51.1233V23.0721H46.5513V28.8561ZM53.0303 30.1641V21.7641H54.3143L57.9863 27.8961H57.3143L60.9263 21.7641H62.2103L62.2223 30.1641H60.7463L60.7343 24.0801H61.0463L57.9743 29.2041H57.2783L54.1583 24.0801H54.5183V30.1641H53.0303Z" fill="#F9E4D2"/>
<path d="M90.5639 25.7296H94.7519V27.0496H90.5639V25.7296ZM90.6959 30.2656H89.1359V21.8656H95.2679V23.1736H90.6959V30.2656ZM98.2166 25.3576H102.393V26.6416H98.2166V25.3576ZM98.3366 28.9576H103.077V30.2656H96.7766V21.8656H102.909V23.1736H98.3366V28.9576ZM107.42 30.3856C106.764 30.3856 106.136 30.2936 105.536 30.1096C104.936 29.9176 104.46 29.6736 104.108 29.3776L104.648 28.1656C104.984 28.4296 105.4 28.6496 105.896 28.8256C106.392 29.0016 106.9 29.0896 107.42 29.0896C107.86 29.0896 108.216 29.0416 108.488 28.9456C108.76 28.8496 108.96 28.7216 109.088 28.5616C109.216 28.3936 109.28 28.2056 109.28 27.9976C109.28 27.7416 109.188 27.5376 109.004 27.3856C108.82 27.2256 108.58 27.1016 108.284 27.0136C107.996 26.9176 107.672 26.8296 107.312 26.7496C106.96 26.6696 106.604 26.5776 106.244 26.4736C105.892 26.3616 105.568 26.2216 105.272 26.0536C104.984 25.8776 104.748 25.6456 104.564 25.3576C104.38 25.0696 104.288 24.7016 104.288 24.2536C104.288 23.7976 104.408 23.3816 104.648 23.0056C104.896 22.6216 105.268 22.3176 105.764 22.0936C106.268 21.8616 106.904 21.7456 107.672 21.7456C108.176 21.7456 108.676 21.8096 109.172 21.9376C109.668 22.0656 110.1 22.2496 110.468 22.4896L109.976 23.7016C109.6 23.4776 109.212 23.3136 108.812 23.2096C108.412 23.0976 108.028 23.0416 107.66 23.0416C107.228 23.0416 106.876 23.0936 106.604 23.1976C106.34 23.3016 106.144 23.4376 106.016 23.6056C105.896 23.7736 105.836 23.9656 105.836 24.1816C105.836 24.4376 105.924 24.6456 106.1 24.8056C106.284 24.9576 106.52 25.0776 106.808 25.1656C107.104 25.2536 107.432 25.3416 107.792 25.4296C108.152 25.5096 108.508 25.6016 108.86 25.7056C109.22 25.8096 109.544 25.9456 109.832 26.1136C110.128 26.2816 110.364 26.5096 110.54 26.7976C110.724 27.0856 110.816 27.4496 110.816 27.8896C110.816 28.3376 110.692 28.7536 110.444 29.1376C110.204 29.5136 109.832 29.8176 109.328 30.0496C108.824 30.2736 108.188 30.3856 107.42 30.3856ZM113.949 30.2656V23.1856H111.165V21.8656H118.293V23.1856H115.509V30.2656H113.949ZM119.464 30.2656V21.8656H121.024V30.2656H119.464ZM125.721 30.2656L122.049 21.8656H123.741L127.017 29.4616H126.045L129.357 21.8656H130.917L127.257 30.2656H125.721ZM130.346 30.2656L134.126 21.8656H135.662L139.454 30.2656H137.822L134.57 22.6936H135.194L131.954 30.2656H130.346ZM132.086 28.3216L132.506 27.0976H137.042L137.462 28.3216H132.086ZM140.523 30.2656V21.8656H142.083V28.9456H146.475V30.2656H140.523Z" fill="#F9E4D2"/>
<defs>
<clipPath id="clip0_12564_18159">
<rect width="30" height="30" fill="white" transform="translate(60.5401 12.9922)"/>
</clipPath>
</defs>
</svg>
