<svg width="150" height="50" viewBox="0 0 150 50" fill="none" xmlns="http://www.w3.org/2000/svg">
<circle cx="74.9991" cy="24.9991" r="24.4991" stroke="white"/>
<rect y="18.1641" width="150" height="16" fill="#E66B5B"/>
<g clip-path="url(#clip0_12574_14329)">
<path d="M87.2834 32.3834L79.4396 24.5397C79.255 24.3551 78.9557 24.3551 78.7712 24.5397L78.5979 24.713L78.2796 22.8029L85.5007 15.5819C85.6853 15.3972 85.6853 15.0979 85.5007 14.9134L83.718 13.1306C83.6294 13.042 83.5091 12.9922 83.3838 12.9922C83.2585 12.9922 83.1382 13.042 83.0496 13.1306L75.3104 20.8698H73.9503C73.4804 20.8698 73.0826 21.1998 72.9926 21.658L66.2479 14.9133C66.0864 14.7518 65.8371 14.7316 65.6536 14.8527C65.6274 14.8701 65.6026 14.8902 65.5794 14.9133L63.7967 16.696C63.708 16.7846 63.6582 16.9049 63.6582 17.0302C63.6582 17.1556 63.708 17.2759 63.7967 17.3645L71.6404 25.2082C71.7327 25.3005 71.8537 25.3467 71.9746 25.3467C72.0956 25.3467 72.2166 25.3006 72.3089 25.2082L72.4177 25.0994L71.9721 27.7733L65.5794 34.1661C65.3947 34.3507 65.3947 34.65 65.5794 34.8345L67.362 36.6172C67.4506 36.7059 67.5709 36.7557 67.6962 36.7557C67.8216 36.7557 67.9419 36.7059 68.0305 36.6172L70.9916 33.6562L69.5932 42.0468H68.481C68.22 42.0468 68.0083 42.2584 68.0083 42.5195C68.0083 42.7805 68.22 42.9921 68.481 42.9921H82.599C82.86 42.9921 83.0717 42.7805 83.0717 42.5195C83.0717 42.2584 82.86 42.0468 82.599 42.0468H81.4868L79.3753 29.3777L84.8321 34.8345C84.9128 34.9153 85.0156 34.9607 85.121 34.9708C85.1361 34.9723 85.1512 34.973 85.1663 34.973C85.2873 34.973 85.4083 34.9269 85.5005 34.8345L87.2833 33.0519C87.3719 32.9633 87.4217 32.843 87.4217 32.7177C87.4218 32.5923 87.372 32.4721 87.2834 32.3834ZM83.3838 14.1334L84.498 15.2476L77.3227 22.4229L76.2085 21.3087L83.3838 14.1334ZM76.8664 24.2161L77.4579 23.6246L77.7763 25.5345L77.3226 25.9882L76.8663 25.532C76.9652 25.3336 77.021 25.1103 77.021 24.874C77.0211 24.6378 76.9652 24.4144 76.8664 24.2161ZM73.9192 21.8415C73.9218 21.8263 73.9348 21.8152 73.9503 21.8152H75.3781L76.6542 23.0913L76.1979 23.5475C75.9996 23.4487 75.7762 23.3928 75.54 23.3928C75.3037 23.3928 75.0804 23.4487 74.882 23.5475L73.813 22.4785L73.9192 21.8415ZM76.0757 24.874C76.0757 25.1694 75.8354 25.4097 75.54 25.4097C75.2446 25.4097 75.0043 25.1694 75.0043 24.874C75.0043 24.5786 75.2446 24.3383 75.54 24.3383C75.8354 24.3383 76.0757 24.5786 76.0757 24.874ZM73.5679 23.9492L73.7574 23.7598L74.2136 24.216C74.1148 24.4143 74.0589 24.6377 74.0589 24.8739C74.0589 25.1102 74.1148 25.3336 74.2136 25.5319L73.1223 26.6232L73.5679 23.9492ZM71.9747 24.2054L64.7994 17.0302L65.9136 15.916L73.0888 23.0912L71.9747 24.2054ZM67.6962 35.6146L66.5821 34.5004L73.7574 27.3252L74.8715 28.4394L67.6962 35.6146ZM76.5799 42.0468H74.5V40.5026C74.5 39.9292 74.9666 39.4627 75.54 39.4627C76.1134 39.4627 76.5799 39.9292 76.5799 40.5026L76.5799 42.0468ZM80.5284 42.0468H77.5254V40.5026C77.5254 39.4079 76.6348 38.5173 75.5401 38.5173C74.4454 38.5173 73.5547 39.4079 73.5547 40.5026V42.0468H70.5518L72.1419 32.506L75.8743 28.7734C76.0589 28.5888 76.0589 28.2895 75.8743 28.105L74.4259 26.6565L74.8821 26.2003C75.0804 26.2992 75.3038 26.355 75.5401 26.355C75.7763 26.355 75.9997 26.2991 76.198 26.2003L78.2252 28.2275L80.5284 42.0468ZM85.1664 33.8319L77.9912 26.6567L79.1054 25.5424L86.2806 32.7177L85.1664 33.8319Z" fill="white"/>
<path d="M75.5401 30.9531C75.279 30.9531 75.0674 31.1648 75.0674 31.4258V31.93C75.0674 32.191 75.279 32.4027 75.5401 32.4027C75.8011 32.4027 76.0127 32.191 76.0127 31.93V31.4258C76.0127 31.1648 75.8011 30.9531 75.5401 30.9531Z" fill="white"/>
<path d="M75.5401 33.9766C75.279 33.9766 75.0674 34.1882 75.0674 34.4492V34.9534C75.0674 35.2145 75.279 35.4261 75.5401 35.4261C75.8011 35.4261 76.0127 35.2145 76.0127 34.9534V34.4492C76.0127 34.1882 75.8011 33.9766 75.5401 33.9766Z" fill="white"/>
</g>
<path d="M90.9832 10.7999L91.0845 13.1476L93.4327 13.2493L91.4501 14.5112L92.5362 16.5953L90.4517 15.5093L89.1901 17.4918L89.0888 15.1441L86.7406 15.0424L88.7233 13.7805L87.6372 11.6964L89.7216 12.7824L90.9832 10.7999Z" fill="white"/>
<path d="M74.3557 3.14581L75.7853 5.01084L77.7672 3.7473L76.8668 5.91815L78.9519 7.0024L76.6215 7.30838L76.7252 9.656L75.2956 7.79097L73.3138 9.05452L74.2141 6.88368L72.129 5.79942L74.4594 5.49343L74.3557 3.14581Z" fill="white"/>
<path d="M88.4355 33.0136L90.2991 34.4451L91.8864 32.7117L91.5786 35.0416L93.8732 35.5492L91.7015 36.4479L92.4092 38.6887L90.5456 37.2573L88.9583 38.9907L89.2661 36.6608L86.9715 36.1531L89.1432 35.2544L88.4355 33.0136Z" fill="white"/>
<path d="M62.885 33.194L61.9847 35.3646L64.0699 36.4491L61.7397 36.7549L61.8433 39.1027L60.4131 37.2375L58.4318 38.5011L59.3322 36.3306L57.247 35.246L59.5772 34.9403L59.4736 32.5924L60.9038 34.4576L62.885 33.194Z" fill="white"/>
<path d="M58.5304 11.0056L60.1171 12.7389L61.9813 11.3074L61.2737 13.5485L63.4453 14.4469L61.1504 14.9548L61.4583 17.2845L59.8716 15.5511L58.0074 16.9826L58.7151 14.7416L56.5435 13.8432L58.8383 13.3352L58.5304 11.0056Z" fill="white"/>
<path d="M7.032 21.7641H8.592V30.1641H7.032V21.7641ZM2.688 30.1641H1.128V21.7641H2.688V30.1641ZM7.152 26.5641H2.556V25.2321H7.152V26.5641ZM9.65484 30.1641L13.4348 21.7641H14.9708L18.7628 30.1641H17.1308L13.8788 22.5921H14.5028L11.2628 30.1641H9.65484ZM11.3948 28.2201L11.8148 26.9961H16.3508L16.7708 28.2201H11.3948ZM18.8541 30.1641L22.6341 21.7641H24.1701L27.9621 30.1641H26.3301L23.0781 22.5921H23.7021L20.4621 30.1641H18.8541ZM20.5941 28.2201L21.0141 26.9961H25.5501L25.9701 28.2201H20.5941ZM29.0303 30.1641V21.7641H32.4863C33.2303 21.7641 33.8663 21.8841 34.3943 22.1241C34.9303 22.3641 35.3423 22.7081 35.6303 23.1561C35.9183 23.6041 36.0623 24.1361 36.0623 24.7521C36.0623 25.3681 35.9183 25.9001 35.6303 26.3481C35.3423 26.7881 34.9303 27.1281 34.3943 27.3681C33.8663 27.6001 33.2303 27.7161 32.4863 27.7161H29.8943L30.5903 27.0081V30.1641H29.0303ZM34.5263 30.1641L32.4023 27.1161H34.0703L36.2063 30.1641H34.5263ZM30.5903 27.1761L29.8943 26.4321H32.4143C33.1023 26.4321 33.6183 26.2841 33.9623 25.9881C34.3143 25.6921 34.4903 25.2801 34.4903 24.7521C34.4903 24.2161 34.3143 23.8041 33.9623 23.5161C33.6183 23.2281 33.1023 23.0841 32.4143 23.0841H29.8943L30.5903 22.3161V27.1761ZM37.8077 30.1641V21.7641H39.3677V28.8441H43.7597V30.1641H37.8077ZM46.4313 25.2561H50.6073V26.5401H46.4313V25.2561ZM46.5513 28.8561H51.2913V30.1641H44.9913V21.7641H51.1233V23.0721H46.5513V28.8561ZM53.0303 30.1641V21.7641H54.3143L57.9863 27.8961H57.3143L60.9263 21.7641H62.2103L62.2223 30.1641H60.7463L60.7343 24.0801H61.0463L57.9743 29.2041H57.2783L54.1583 24.0801H54.5183V30.1641H53.0303Z" fill="white"/>
<path d="M90.5638 25.7296H94.7518V27.0496H90.5638V25.7296ZM90.6958 30.2656H89.1358V21.8656H95.2678V23.1736H90.6958V30.2656ZM98.2164 25.3576H102.392V26.6416H98.2164V25.3576ZM98.3364 28.9576H103.076V30.2656H96.7764V21.8656H102.908V23.1736H98.3364V28.9576ZM107.42 30.3856C106.764 30.3856 106.136 30.2936 105.536 30.1096C104.936 29.9176 104.46 29.6736 104.108 29.3776L104.648 28.1656C104.984 28.4296 105.4 28.6496 105.896 28.8256C106.392 29.0016 106.9 29.0896 107.42 29.0896C107.86 29.0896 108.216 29.0416 108.488 28.9456C108.76 28.8496 108.96 28.7216 109.088 28.5616C109.216 28.3936 109.28 28.2056 109.28 27.9976C109.28 27.7416 109.188 27.5376 109.004 27.3856C108.82 27.2256 108.58 27.1016 108.284 27.0136C107.996 26.9176 107.672 26.8296 107.312 26.7496C106.96 26.6696 106.604 26.5776 106.244 26.4736C105.892 26.3616 105.568 26.2216 105.271 26.0536C104.984 25.8776 104.748 25.6456 104.564 25.3576C104.38 25.0696 104.288 24.7016 104.288 24.2536C104.288 23.7976 104.408 23.3816 104.648 23.0056C104.896 22.6216 105.268 22.3176 105.764 22.0936C106.268 21.8616 106.904 21.7456 107.672 21.7456C108.176 21.7456 108.676 21.8096 109.172 21.9376C109.668 22.0656 110.1 22.2496 110.467 22.4896L109.976 23.7016C109.6 23.4776 109.212 23.3136 108.812 23.2096C108.412 23.0976 108.028 23.0416 107.66 23.0416C107.228 23.0416 106.876 23.0936 106.604 23.1976C106.34 23.3016 106.144 23.4376 106.016 23.6056C105.896 23.7736 105.836 23.9656 105.836 24.1816C105.836 24.4376 105.924 24.6456 106.1 24.8056C106.284 24.9576 106.52 25.0776 106.808 25.1656C107.104 25.2536 107.432 25.3416 107.792 25.4296C108.152 25.5096 108.508 25.6016 108.86 25.7056C109.22 25.8096 109.544 25.9456 109.832 26.1136C110.128 26.2816 110.364 26.5096 110.54 26.7976C110.724 27.0856 110.816 27.4496 110.816 27.8896C110.816 28.3376 110.692 28.7536 110.444 29.1376C110.204 29.5136 109.832 29.8176 109.328 30.0496C108.824 30.2736 108.188 30.3856 107.42 30.3856ZM113.949 30.2656V23.1856H111.165V21.8656H118.293V23.1856H115.509V30.2656H113.949ZM119.464 30.2656V21.8656H121.024V30.2656H119.464ZM125.721 30.2656L122.049 21.8656H123.741L127.017 29.4616H126.045L129.357 21.8656H130.917L127.257 30.2656H125.721ZM130.346 30.2656L134.126 21.8656H135.662L139.454 30.2656H137.822L134.57 22.6936H135.194L131.954 30.2656H130.346ZM132.086 28.3216L132.506 27.0976H137.042L137.462 28.3216H132.086ZM140.523 30.2656V21.8656H142.083V28.9456H146.475V30.2656H140.523Z" fill="white"/>
<defs>
<clipPath id="clip0_12574_14329">
<rect width="30" height="30" fill="white" transform="translate(60.54 12.9922)"/>
</clipPath>
</defs>
</svg>
