<svg width="32" height="32" viewBox="0 0 32 32" fill="none" xmlns="http://www.w3.org/2000/svg">
<path d="M21.1393 24.7268C21.1393 25.3086 21.2363 25.7935 21.2363 26.2783C21.2363 29.3813 19.1029 31.5147 16.0969 31.5147C12.9938 31.5147 10.9575 29.3813 10.9575 25.9874C10.9575 25.5026 10.9575 25.5026 10.9575 25.3086V24.7268C9.309 25.8904 8.24233 26.2783 6.78779 26.2783C4.1696 26.2783 1.74536 23.7571 1.74536 20.945C1.74536 18.9086 3.19991 17.1632 5.33324 16.1935L5.81809 15.9995C3.10294 14.642 1.74536 13.0904 1.74536 10.9571C1.74536 8.04801 3.97566 5.62377 6.78779 5.62377C7.95142 5.62377 9.40597 6.20559 10.4726 6.98134L10.9575 7.17528C10.9575 6.59347 10.8605 6.10862 10.8605 5.72074C10.8605 2.61771 12.9938 0.484375 15.9999 0.484375C19.1029 0.484375 21.1393 2.61771 21.1393 6.01165V6.69044L21.0423 7.17528C22.6908 6.01165 23.7575 5.62377 25.212 5.62377C27.8302 5.62377 30.2545 8.14498 30.2545 10.9571C30.2545 12.9935 28.7999 14.7389 26.6666 15.7086L26.1817 15.9995C28.8969 17.3571 30.2545 18.9086 30.2545 21.042C30.2545 23.951 28.0241 26.3753 25.212 26.3753C24.0484 26.3753 22.4969 25.8904 21.5272 25.0177L21.1393 24.7268ZM18.5211 19.4904C20.9454 22.9813 23.1757 24.7268 25.212 24.7268C26.9575 24.7268 28.509 22.9813 28.509 21.042C28.509 18.5207 25.5029 16.8723 20.2666 16.4844V15.6116C25.5999 15.1268 28.509 13.5753 28.509 11.0541C28.509 9.11468 26.9575 7.36922 25.212 7.36922C23.1757 7.36922 20.9454 9.11468 18.5211 12.6056L17.6484 12.1207C18.812 9.6965 19.3938 7.66013 19.3938 6.01165C19.3938 3.58741 18.0363 2.22983 15.9029 2.22983C13.7696 2.22983 12.412 3.68437 12.412 6.01165C12.412 7.7571 12.9938 9.6965 14.1575 12.2177L13.2848 12.7026C11.1514 9.30862 8.82415 7.56316 6.78779 7.56316C5.04233 7.56316 3.49082 9.30862 3.49082 11.248C3.49082 13.7692 6.39991 15.4177 11.7332 15.8056V16.6783C6.49688 17.1632 3.49082 18.7147 3.49082 21.2359C3.49082 23.1753 5.04233 24.9207 6.78779 24.9207C8.82415 24.9207 11.0545 23.1753 13.4787 19.6844L14.3514 20.1692C13.1878 22.6904 12.606 24.7268 12.606 26.3753C12.606 28.6056 13.9635 30.1571 16.0969 30.1571C18.2302 30.1571 19.5878 28.7026 19.5878 26.3753C19.5878 24.7268 19.006 22.6904 17.8423 20.1692L18.5211 19.4904Z" fill="#C1282D"/>
</svg>
