<svg width="32" height="33" viewBox="0 0 32 33" fill="none" xmlns="http://www.w3.org/2000/svg">
<g clip-path="url(#clip0_4094_12998)">
<path d="M21.1393 25.2268C21.1393 25.8086 21.2363 26.2935 21.2363 26.7783C21.2363 29.8813 19.1029 32.0147 16.0969 32.0147C12.9938 32.0147 10.9575 29.8813 10.9575 26.4874C10.9575 26.0026 10.9575 26.0026 10.9575 25.8086V25.2268C9.309 26.3904 8.24233 26.7783 6.78779 26.7783C4.1696 26.7783 1.74536 24.2571 1.74536 21.445C1.74536 19.4086 3.19991 17.6632 5.33324 16.6935L5.81809 16.4995C3.10294 15.142 1.74536 13.5904 1.74536 11.4571C1.74536 8.54801 3.97566 6.12377 6.78779 6.12377C7.95142 6.12377 9.40597 6.70559 10.4726 7.48134L10.9575 7.67528C10.9575 7.09347 10.8605 6.60862 10.8605 6.22074C10.8605 3.11771 12.9938 0.984375 15.9999 0.984375C19.1029 0.984375 21.1393 3.11771 21.1393 6.51165V7.19044L21.0423 7.67528C22.6908 6.51165 23.7575 6.12377 25.212 6.12377C27.8302 6.12377 30.2545 8.64498 30.2545 11.4571C30.2545 13.4935 28.7999 15.2389 26.6666 16.2086L26.1817 16.4995C28.8969 17.8571 30.2545 19.4086 30.2545 21.542C30.2545 24.451 28.0241 26.8753 25.212 26.8753C24.0484 26.8753 22.4969 26.3904 21.5272 25.5177L21.1393 25.2268ZM18.5211 19.9904C20.9454 23.4813 23.1757 25.2268 25.212 25.2268C26.9575 25.2268 28.509 23.4813 28.509 21.542C28.509 19.0207 25.5029 17.3723 20.2666 16.9844V16.1116C25.5999 15.6268 28.509 14.0753 28.509 11.5541C28.509 9.61468 26.9575 7.86922 25.212 7.86922C23.1757 7.86922 20.9454 9.61468 18.5211 13.1056L17.6484 12.6207C18.812 10.1965 19.3938 8.16013 19.3938 6.51165C19.3938 4.08741 18.0363 2.72983 15.9029 2.72983C13.7696 2.72983 12.412 4.18437 12.412 6.51165C12.412 8.2571 12.9938 10.1965 14.1575 12.7177L13.2848 13.2026C11.1514 9.80862 8.82415 8.06316 6.78779 8.06316C5.04233 8.06316 3.49082 9.80862 3.49082 11.748C3.49082 14.2692 6.39991 15.9177 11.7332 16.3056V17.1783C6.49688 17.6632 3.49082 19.2147 3.49082 21.7359C3.49082 23.6753 5.04233 25.4207 6.78779 25.4207C8.82415 25.4207 11.0545 23.6753 13.4787 20.1844L14.3514 20.6692C13.1878 23.1904 12.606 25.2268 12.606 26.8753C12.606 29.1056 13.9635 30.6571 16.0969 30.6571C18.2302 30.6571 19.5878 29.2026 19.5878 26.8753C19.5878 25.2268 19.006 23.1904 17.8423 20.6692L18.5211 19.9904Z" fill="white"/>
</g>
<defs>
<clipPath id="clip0_4094_12998">
<rect width="32" height="32" fill="white" transform="translate(0 0.5)"/>
</clipPath>
</defs>
</svg>
