<svg width="1218" height="1163" viewBox="0 0 1218 1163" fill="none" xmlns="http://www.w3.org/2000/svg">
<path fill-rule="evenodd" clip-rule="evenodd" d="M248 17.5L0 0.5V1082C0 1082 954.5 1263.5 995 1082C1035.5 900.5 1218 33 1218 33H1056H876L499 27.5L248 17.5ZM68.09 175.732C72.302 178.252 77.252 179.512 82.94 179.512C86.288 179.512 89.726 179.098 93.254 178.27C96.782 177.442 99.86 176.416 102.488 175.192L103.136 165.688C100.22 166.696 97.25 167.704 94.226 168.712C91.238 169.72 88.124 170.224 84.884 170.224C80.636 170.224 77.144 169.234 74.408 167.254C71.672 165.238 69.638 162.466 68.306 158.938C66.974 155.41 66.308 151.36 66.308 146.788C66.308 142.072 66.956 137.536 68.252 133.18C69.584 128.824 71.492 124.918 73.976 121.462C76.46 117.97 79.484 115.216 83.048 113.2C86.612 111.184 90.644 110.176 95.144 110.176C98.6 110.176 101.66 110.698 104.324 111.742C106.988 112.75 109.58 113.776 112.1 114.82L114.908 105.316C112.748 104.056 110.03 103.012 106.754 102.184C103.478 101.32 100.076 100.888 96.548 100.888C90.932 100.888 85.622 102.04 80.618 104.344C75.614 106.648 71.186 109.888 67.334 114.064C63.482 118.24 60.458 123.154 58.262 128.806C56.066 134.458 54.968 140.632 54.968 147.328C54.968 154.096 56.102 159.892 58.37 164.716C60.674 169.504 63.914 173.176 68.09 175.732ZM134.934 102.4L121.65 178H131.91L138.002 143.332H174.448L168.306 178H178.566L191.958 102.4H181.698L176.169 133.612H139.71L145.194 102.4H134.934ZM215.544 168.712H248.278L246.658 178H203.566L216.85 102.4H259.078L257.458 111.688H225.607L221.7 133.828H246.766L245.146 143.116H220.061L215.544 168.712ZM280.719 175.732C284.931 178.252 289.881 179.512 295.569 179.512C298.917 179.512 302.355 179.098 305.883 178.27C309.411 177.442 312.489 176.416 315.117 175.192L315.765 165.688C312.849 166.696 309.879 167.704 306.855 168.712C303.867 169.72 300.753 170.224 297.513 170.224C293.265 170.224 289.773 169.234 287.037 167.254C284.301 165.238 282.267 162.466 280.935 158.938C279.603 155.41 278.937 151.36 278.937 146.788C278.937 142.072 279.585 137.536 280.881 133.18C282.213 128.824 284.121 124.918 286.605 121.462C289.089 117.97 292.113 115.216 295.677 113.2C299.241 111.184 303.273 110.176 307.773 110.176C311.229 110.176 314.289 110.698 316.953 111.742C319.617 112.75 322.209 113.776 324.729 114.82L327.537 105.316C325.377 104.056 322.659 103.012 319.383 102.184C316.107 101.32 312.705 100.888 309.177 100.888C303.561 100.888 298.251 102.04 293.247 104.344C288.243 106.648 283.815 109.888 279.963 114.064C276.111 118.24 273.087 123.154 270.891 128.806C268.695 134.458 267.597 140.632 267.597 147.328C267.597 154.096 268.731 159.892 270.999 164.716C273.303 169.504 276.543 173.176 280.719 175.732ZM352.532 137.932L372.62 178H384.392L363.551 137.888L395.84 102.4H383.528L352.532 137.932ZM347.564 102.4L334.28 178H344.54L357.824 102.4H347.564ZM445.304 175.732C449.48 178.252 454.412 179.512 460.1 179.512C465.644 179.512 470.882 178.36 475.814 176.056C480.746 173.716 485.102 170.44 488.882 166.228C492.698 162.016 495.686 157.084 497.846 151.432C500.042 145.744 501.14 139.552 501.14 132.856C501.14 126.124 500.006 120.382 497.738 115.63C495.506 110.842 492.302 107.188 488.126 104.668C483.986 102.148 479.072 100.888 473.384 100.888C467.84 100.888 462.584 102.058 457.616 104.398C452.684 106.702 448.31 109.96 444.494 114.172C440.714 118.384 437.744 123.334 435.584 129.022C433.424 134.674 432.344 140.848 432.344 147.544C432.344 154.276 433.46 160.036 435.692 164.824C437.96 169.576 441.164 173.212 445.304 175.732ZM473.438 167.2C469.982 169.216 466.112 170.224 461.828 170.224C457.544 170.224 454.07 169.198 451.406 167.146C448.742 165.094 446.78 162.304 445.52 158.776C444.296 155.248 443.684 151.288 443.684 146.896C443.684 142.18 444.332 137.644 445.628 133.288C446.924 128.896 448.778 124.972 451.19 121.516C453.638 118.024 456.59 115.27 460.046 113.254C463.502 111.202 467.372 110.176 471.656 110.176C475.94 110.176 479.414 111.202 482.078 113.254C484.778 115.27 486.758 118.042 488.018 121.57C489.278 125.098 489.908 129.076 489.908 133.504C489.908 138.184 489.242 142.72 487.91 147.112C486.614 151.504 484.742 155.446 482.294 158.938C479.846 162.394 476.894 165.148 473.438 167.2ZM524.301 173.302C528.117 177.442 533.967 179.512 541.851 179.512C548.223 179.512 553.731 178.162 558.375 175.462C563.019 172.726 566.799 168.856 569.715 163.852C572.667 158.812 574.755 152.836 575.979 145.924L583.647 102.4H573.387L566.583 140.956C566.007 144.196 565.233 147.526 564.261 150.946C563.289 154.366 561.939 157.534 560.211 160.45C558.483 163.366 556.269 165.724 553.569 167.524C550.869 169.324 547.503 170.224 543.471 170.224C539.871 170.224 537.045 169.486 534.993 168.01C532.977 166.498 531.537 164.464 530.673 161.908C529.845 159.352 529.431 156.472 529.431 153.268C529.431 151.324 529.557 149.308 529.809 147.22C530.061 145.132 530.367 143.044 530.727 140.956L537.531 102.4H527.271L519.603 145.924C519.279 147.688 519.027 149.506 518.847 151.378C518.703 153.25 518.631 154.78 518.631 155.968C518.631 163.348 520.521 169.126 524.301 173.302ZM620.359 111.688L608.7 178H618.96L630.619 111.688H650.28L651.9 102.4H602.328L600.708 111.688H620.359ZM713.948 111.688L702.289 178H712.549L724.208 111.688H743.869L745.489 102.4H695.917L694.297 111.688H713.948ZM765.3 102.4L752.016 178H762.276L768.368 143.332H804.813L798.672 178H808.932L822.324 102.4H812.064L806.535 133.612H770.076L775.56 102.4H765.3ZM845.91 168.712H878.643L877.023 178H833.931L847.215 102.4H889.443L887.823 111.688H855.973L852.066 133.828H877.131L875.511 143.116H850.427L845.91 168.712ZM902.908 178C906.652 179.008 911.008 179.512 915.976 179.512C921.844 179.512 926.74 178.792 930.664 177.352C934.624 175.876 937.774 173.932 940.114 171.52C942.454 169.108 944.128 166.462 945.136 163.582C946.144 160.702 946.648 157.84 946.648 154.996C946.648 151.504 946.036 148.624 944.812 146.356C943.588 144.052 941.968 142.162 939.952 140.686C937.972 139.174 935.758 137.914 933.31 136.906C930.898 135.862 928.468 134.872 926.02 133.936C922.24 132.46 919.234 130.966 917.002 129.454C914.806 127.906 913.708 125.62 913.708 122.596C913.708 119.716 914.59 117.358 916.354 115.522C918.154 113.686 920.332 112.336 922.888 111.472C925.48 110.608 927.964 110.176 930.34 110.176C933.976 110.176 937.216 110.752 940.06 111.904C942.904 113.056 945.784 114.748 948.7 116.98L951.616 106.072C949.456 104.812 946.612 103.642 943.084 102.562C939.592 101.446 935.596 100.888 931.096 100.888C925.84 100.888 921.376 101.716 917.704 103.372C914.032 104.992 911.062 107.08 908.794 109.636C906.562 112.192 904.924 114.892 903.88 117.736C902.872 120.58 902.368 123.208 902.368 125.62C902.368 128.392 902.926 130.732 904.042 132.64C905.194 134.548 906.67 136.15 908.47 137.446C910.306 138.742 912.286 139.84 914.41 140.74C916.57 141.64 918.64 142.504 920.62 143.332C923.284 144.412 925.714 145.51 927.91 146.626C930.106 147.742 931.852 149.128 933.148 150.784C934.444 152.44 935.092 154.6 935.092 157.264C935.092 160.252 934.282 162.7 932.662 164.608C931.042 166.516 928.9 167.938 926.236 168.874C923.572 169.774 920.692 170.224 917.596 170.224C913.168 170.224 909.316 169.414 906.04 167.794C902.764 166.138 900.1 164.428 898.048 162.664L894.592 174.652C896.428 175.876 899.2 176.992 902.908 178ZM974.62 168.712H1007.35L1005.73 178H962.641L975.925 102.4H1018.15L1016.53 111.688H984.683L980.776 133.828H1005.84L1004.22 143.116H979.137L974.62 168.712ZM72.248 234.4L49.676 310H60.476L76.485 254.269L88.232 292.072L113.092 254.267L109.4 310H120.2L124.304 234.4H115.016L91.6782 271.926L81.536 234.4H72.248ZM150.617 305.302C154.433 309.442 160.283 311.512 168.167 311.512C174.539 311.512 180.047 310.162 184.691 307.462C189.335 304.726 193.115 300.856 196.031 295.852C198.983 290.812 201.071 284.836 202.295 277.924L209.963 234.4H199.703L192.899 272.956C192.323 276.196 191.549 279.526 190.577 282.946C189.605 286.366 188.255 289.534 186.527 292.45C184.799 295.366 182.585 297.724 179.885 299.524C177.185 301.324 173.819 302.224 169.787 302.224C166.187 302.224 163.361 301.486 161.309 300.01C159.293 298.498 157.853 296.464 156.989 293.908C156.161 291.352 155.747 288.472 155.747 285.268C155.747 283.324 155.873 281.308 156.125 279.22C156.377 277.132 156.683 275.044 157.043 272.956L163.847 234.4H153.587L145.919 277.924C145.595 279.688 145.343 281.506 145.163 283.378C145.019 285.25 144.947 286.78 144.947 287.968C144.947 295.348 146.837 301.126 150.617 305.302ZM226.592 310C230.336 311.008 234.692 311.512 239.66 311.512C245.528 311.512 250.424 310.792 254.348 309.352C258.308 307.876 261.458 305.932 263.798 303.52C266.138 301.108 267.812 298.462 268.82 295.582C269.828 292.702 270.332 289.84 270.332 286.996C270.332 283.504 269.72 280.624 268.496 278.356C267.272 276.052 265.652 274.162 263.636 272.686C261.656 271.174 259.442 269.914 256.994 268.906C254.582 267.862 252.152 266.872 249.704 265.936C245.924 264.46 242.918 262.966 240.686 261.454C238.49 259.906 237.392 257.62 237.392 254.596C237.392 251.716 238.274 249.358 240.038 247.522C241.838 245.686 244.016 244.336 246.572 243.472C249.164 242.608 251.648 242.176 254.024 242.176C257.66 242.176 260.9 242.752 263.744 243.904C266.588 245.056 269.468 246.748 272.384 248.98L275.3 238.072C273.14 236.812 270.296 235.642 266.768 234.562C263.276 233.446 259.28 232.888 254.78 232.888C249.524 232.888 245.06 233.716 241.388 235.372C237.716 236.992 234.746 239.08 232.478 241.636C230.246 244.192 228.608 246.892 227.564 249.736C226.556 252.58 226.052 255.208 226.052 257.62C226.052 260.392 226.61 262.732 227.726 264.64C228.878 266.548 230.354 268.15 232.154 269.446C233.99 270.742 235.97 271.84 238.094 272.74C240.254 273.64 242.324 274.504 244.304 275.332C246.968 276.412 249.398 277.51 251.594 278.626C253.79 279.742 255.536 281.128 256.832 282.784C258.128 284.44 258.776 286.6 258.776 289.264C258.776 292.252 257.966 294.7 256.346 296.608C254.726 298.516 252.584 299.938 249.92 300.874C247.256 301.774 244.376 302.224 241.28 302.224C236.852 302.224 233 301.414 229.724 299.794C226.448 298.138 223.784 296.428 221.732 294.664L218.276 306.652C220.112 307.876 222.884 308.992 226.592 310ZM312.348 243.688L300.689 310H310.949L322.608 243.688H342.269L343.889 234.4H294.317L292.697 243.688H312.348ZM385.854 310C389.598 311.008 393.954 311.512 398.922 311.512C404.79 311.512 409.686 310.792 413.61 309.352C417.57 307.876 420.72 305.932 423.06 303.52C425.4 301.108 427.074 298.462 428.082 295.582C429.09 292.702 429.594 289.84 429.594 286.996C429.594 283.504 428.982 280.624 427.758 278.356C426.534 276.052 424.914 274.162 422.898 272.686C420.918 271.174 418.704 269.914 416.256 268.906C413.844 267.862 411.414 266.872 408.966 265.936C405.186 264.46 402.18 262.966 399.948 261.454C397.752 259.906 396.654 257.62 396.654 254.596C396.654 251.716 397.536 249.358 399.3 247.522C401.1 245.686 403.278 244.336 405.834 243.472C408.426 242.608 410.91 242.176 413.286 242.176C416.922 242.176 420.162 242.752 423.006 243.904C425.85 245.056 428.73 246.748 431.646 248.98L434.562 238.072C432.402 236.812 429.558 235.642 426.03 234.562C422.538 233.446 418.542 232.888 414.042 232.888C408.786 232.888 404.322 233.716 400.65 235.372C396.978 236.992 394.008 239.08 391.74 241.636C389.508 244.192 387.87 246.892 386.826 249.736C385.818 252.58 385.314 255.208 385.314 257.62C385.314 260.392 385.872 262.732 386.988 264.64C388.14 266.548 389.616 268.15 391.416 269.446C393.252 270.742 395.232 271.84 397.356 272.74C399.516 273.64 401.586 274.504 403.566 275.332C406.23 276.412 408.66 277.51 410.856 278.626C413.052 279.742 414.798 281.128 416.094 282.784C417.39 284.44 418.038 286.6 418.038 289.264C418.038 292.252 417.228 294.7 415.608 296.608C413.988 298.516 411.846 299.938 409.182 300.874C406.518 301.774 403.638 302.224 400.542 302.224C396.114 302.224 392.262 301.414 388.986 299.794C385.71 298.138 383.046 296.428 380.994 294.664L377.538 306.652C379.374 307.876 382.146 308.992 385.854 310ZM457.566 300.712H490.299L488.679 310H445.587L458.871 234.4H501.099L499.479 243.688H467.629L463.722 265.828H488.787L487.167 275.116H462.083L457.566 300.712ZM520.602 300.712H553.336L551.716 310H508.624L521.908 234.4H564.136L562.516 243.688H530.665L526.758 265.828H551.824L550.204 275.116H525.119L520.602 300.712ZM613.136 300.712H645.87L644.25 310H601.158L614.442 234.4H656.67L655.05 243.688H623.199L619.292 265.828H644.358L642.738 275.116H617.653L613.136 300.712ZM669.27 234.4L681.474 310H692.922L731.694 234.4H720.894L689.338 297.614L680.07 234.4H669.27ZM747.963 300.712H780.697L779.077 310H735.985L749.269 234.4H791.497L789.877 243.688H758.026L754.119 265.828H779.185L777.565 275.116H752.48L747.963 300.712ZM812.305 234.4L799.021 310H809.281L819.874 250.261L843.517 310H852.157L865.549 234.4H855.181L845.232 290.996L823.105 234.4H812.305ZM903.163 243.688L891.504 310H901.764L913.423 243.688H933.084L934.704 234.4H885.132L883.512 243.688H903.163ZM947.171 310C950.915 311.008 955.271 311.512 960.239 311.512C966.107 311.512 971.003 310.792 974.927 309.352C978.887 307.876 982.037 305.932 984.377 303.52C986.717 301.108 988.391 298.462 989.399 295.582C990.407 292.702 990.911 289.84 990.911 286.996C990.911 283.504 990.299 280.624 989.075 278.356C987.851 276.052 986.231 274.162 984.215 272.686C982.235 271.174 980.021 269.914 977.573 268.906C975.161 267.862 972.731 266.872 970.283 265.936C966.503 264.46 963.497 262.966 961.265 261.454C959.069 259.906 957.971 257.62 957.971 254.596C957.971 251.716 958.853 249.358 960.617 247.522C962.417 245.686 964.595 244.336 967.151 243.472C969.743 242.608 972.227 242.176 974.603 242.176C978.239 242.176 981.479 242.752 984.323 243.904C987.167 245.056 990.047 246.748 992.963 248.98L995.879 238.072C993.719 236.812 990.875 235.642 987.347 234.562C983.855 233.446 979.859 232.888 975.359 232.888C970.103 232.888 965.639 233.716 961.967 235.372C958.295 236.992 955.325 239.08 953.057 241.636C950.825 244.192 949.187 246.892 948.143 249.736C947.135 252.58 946.631 255.208 946.631 257.62C946.631 260.392 947.189 262.732 948.305 264.64C949.457 266.548 950.933 268.15 952.733 269.446C954.569 270.742 956.549 271.84 958.673 272.74C960.833 273.64 962.903 274.504 964.883 275.332C967.547 276.412 969.977 277.51 972.173 278.626C974.369 279.742 976.115 281.128 977.411 282.784C978.707 284.44 979.355 286.6 979.355 289.264C979.355 292.252 978.545 294.7 976.925 296.608C975.305 298.516 973.163 299.938 970.499 300.874C967.835 301.774 964.955 302.224 961.859 302.224C957.431 302.224 953.579 301.414 950.303 299.794C947.027 298.138 944.363 296.428 942.311 294.664L938.855 306.652C940.691 307.876 943.463 308.992 947.171 310ZM1066.87 288.616L1066.44 291.424H1075.51L1075.94 288.616L1087.72 234.4H1074.32L1066.87 288.616ZM1063.85 298.552L1061.8 310H1073.46L1075.51 298.552H1063.85ZM1095 288.616L1094.57 291.424H1103.64L1104.07 288.616L1115.84 234.4H1102.45L1095 288.616ZM1091.97 298.552L1089.92 310H1101.59L1103.64 298.552H1091.97ZM1123.12 288.616L1122.69 291.424H1131.76L1132.2 288.616L1143.97 234.4H1130.58L1123.12 288.616ZM1120.1 298.552L1118.05 310H1129.71L1131.76 298.552H1120.1Z" fill="#00796B"/>
</svg>
