<svg width="22" height="20" viewBox="0 0 22 20" fill="none" xmlns="http://www.w3.org/2000/svg">
<path fill-rule="evenodd" clip-rule="evenodd" d="M0.295371 1.70958C-0.0965169 1.32042 -0.0987308 0.687261 0.290421 0.295371C0.679581 -0.0965188 1.31274 -0.0987289 1.70463 0.290421C5.97479 4.53082 9.2211 9.6174 11.1534 15.7622C11.2982 15.4797 11.4531 15.1888 11.6156 14.8935C11.4852 14.6806 11.3928 14.4395 11.3492 14.1781L11.12 12.8031C10.4138 8.5655 13.1805 4.52668 17.3871 3.65452L18.4769 3.42857C19.566 3.20274 20.6302 3.90904 20.8452 5.00044L21.0882 6.23438C21.9598 10.6595 19.003 14.93 14.5543 15.6715L13.6508 15.822C13.5575 15.8376 13.4647 15.8464 13.3727 15.8489C13.0242 16.4815 12.7197 17.08 12.4836 17.602C12.3121 17.9813 12.1835 18.3056 12.1003 18.5643C12.0589 18.6932 12.0319 18.796 12.016 18.8743C12.0022 18.9429 12.0002 18.9763 11.9999 18.9819C12.0077 19.4117 11.7399 19.7983 11.3348 19.9423C10.9298 20.0862 10.4781 19.9552 10.213 19.6169L1.39478 8.3669C1.05407 7.93224 1.13024 7.30367 1.56491 6.96297C1.99958 6.62226 2.62814 6.69842 2.96885 7.13309L8.47523 14.158C6.60494 9.309 3.82045 5.21008 0.295371 1.70958ZM14.7104 13.5975C17.7736 12.8266 19.7474 9.7761 19.1259 6.62086L18.8829 5.38692L17.7931 5.61287C14.654 6.26371 12.584 9.2658 13.0851 12.4265C14.0071 10.9857 14.992 9.6292 15.7776 8.8085C16.1595 8.4095 16.7926 8.3957 17.1915 8.7776C17.5905 9.1596 17.6043 9.7926 17.2224 10.1915C16.5417 10.9025 15.6102 12.1834 14.7104 13.5975Z" fill="#41479B"/>
</svg>
