<svg width="30" height="22" viewBox="0 0 30 22" fill="none" xmlns="http://www.w3.org/2000/svg">
<g clip-path="url(#clip0_12590_24507)">
<path d="M28.4134 4.13066C28.2622 3.5167 27.9543 2.95417 27.5208 2.49988C27.0873 2.04559 26.5435 1.71563 25.9444 1.54334C23.7554 1 14.9995 1 14.9995 1C14.9995 1 6.2436 1 4.05463 1.59508C3.45552 1.76738 2.91175 2.09734 2.47824 2.55163C2.04473 3.00591 1.73684 3.56845 1.58566 4.18241C1.18505 6.44056 0.989086 8.73132 1.00024 11.0259C0.985959 13.3377 1.18193 15.6459 1.58566 17.9211C1.75233 18.516 2.06712 19.0571 2.49962 19.4922C2.93212 19.9273 3.4677 20.2417 4.05463 20.4049C6.2436 21 14.9995 21 14.9995 21C14.9995 21 23.7554 21 25.9444 20.4049C26.5435 20.2326 27.0873 19.9027 27.5208 19.4484C27.9543 18.9941 28.2622 18.4316 28.4134 17.8176C28.8109 15.5764 29.0068 13.3031 28.9988 11.0259C29.0131 8.71404 28.8171 6.40582 28.4134 4.13066V4.13066Z" stroke="white" stroke-linecap="round" stroke-linejoin="round"/>
<path d="M12 15L20 11L12 7V15Z" stroke="white" stroke-linecap="round" stroke-linejoin="round"/>
</g>
<defs>
<clipPath id="clip0_12590_24507">
<rect width="30" height="22" fill="white"/>
</clipPath>
</defs>
</svg>
