<svg width="200" height="901" viewBox="0 0 200 901" fill="none" xmlns="http://www.w3.org/2000/svg">
<g clip-path="url(#clip0_12715_19190)">
<path d="M366.193 -36.7014C464.914 -36.7012 910.378 -36.7013 1009.72 -36.7014C1020.76 -36.7014 1029.41 -28.0913 1029.41 -17.0494C1029.48 114.811 1029.84 866.81 1029.84 906.705C1029.84 950.445 173.378 927.263 53.5578 945.196C-65.4993 963.016 132.365 769.228 76.9337 478.403C76.2431 474.779 76.5235 471.008 77.6816 467.506C128.128 314.97 -11.6774 48.2981 0.790992 -4.2442C1.18742 -5.91476 1.9814 -7.29958 3.05839 -8.63675C49.9322 -66.8342 256.17 -36.7016 366.193 -36.7014Z" fill="#E66B5B"/>
</g>
<defs>
<clipPath id="clip0_12715_19190">
<rect width="200" height="900" fill="white" transform="translate(0 0.914062)"/>
</clipPath>
</defs>
</svg>
