<svg width="901" height="901" viewBox="0 0 901 901" fill="none" xmlns="http://www.w3.org/2000/svg">
<g clip-path="url(#clip0_12708_19196)">
<path d="M366.953 -36.7014C465.675 -36.7012 911.139 -36.7013 1010.48 -36.7014C1021.52 -36.7014 1030.17 -28.0913 1030.18 -17.0494C1030.24 114.811 1030.6 866.81 1030.6 906.705C1030.6 950.445 174.138 927.263 54.3181 945.196C-64.739 963.016 133.125 769.228 77.6939 478.403C77.0033 474.779 77.2837 471.008 78.4419 467.506C128.888 314.97 -10.9171 48.2981 1.55125 -4.2442C1.94767 -5.91476 2.74165 -7.29958 3.81864 -8.63675C50.6924 -66.8342 256.93 -36.7016 366.953 -36.7014Z" fill="#E66B5B"/>
</g>
<defs>
<clipPath id="clip0_12708_19196">
<rect width="900" height="900" fill="white" transform="translate(0.760254 0.914062)"/>
</clipPath>
</defs>
</svg>
